<?xml version="1.0" encoding="utf-8" standalone="no"?>
<!DOCTYPE svg PUBLIC "-//W3C//DTD SVG 1.1//EN"
  "http://www.w3.org/Graphics/SVG/1.1/DTD/svg11.dtd">
<svg xmlns:xlink="http://www.w3.org/1999/xlink" width="460.8pt" height="345.6pt" viewBox="0 0 460.8 345.6" xmlns="http://www.w3.org/2000/svg" version="1.1">
 <metadata>
  <rdf:RDF xmlns:dc="http://purl.org/dc/elements/1.1/" xmlns:cc="http://creativecommons.org/ns#" xmlns:rdf="http://www.w3.org/1999/02/22-rdf-syntax-ns#">
   <cc:Work>
    <dc:type rdf:resource="http://purl.org/dc/dcmitype/StillImage"/>
    <dc:date>2022-12-18T19:58:35.431855</dc:date>
    <dc:format>image/svg+xml</dc:format>
    <dc:creator>
     <cc:Agent>
      <dc:title>Matplotlib v3.6.2, https://matplotlib.org/</dc:title>
     </cc:Agent>
    </dc:creator>
   </cc:Work>
  </rdf:RDF>
 </metadata>
 <defs>
  <style type="text/css">*{stroke-linejoin: round; stroke-linecap: butt}</style>
 </defs>
 <g id="figure_1">
  <g id="patch_1">
   <path d="M 0 345.6 
L 460.8 345.6 
L 460.8 0 
L 0 0 
z
" style="fill: #ffffff"/>
  </g>
  <g id="axes_1">
   <g id="patch_2">
    <path d="M 57.6 307.584 
L 414.72 307.584 
L 414.72 41.472 
L 57.6 41.472 
z
" style="fill: #ffffff"/>
   </g>
   <g id="patch_3">
    <path d="M 73.832727 307.584 
L 78.470634 307.584 
L 78.470634 307.583905 
L 73.832727 307.583905 
z
" clip-path="url(#p5cdffe97ed)" style="fill: #1f77b4"/>
   </g>
   <g id="patch_4">
    <path d="M 78.470634 307.584 
L 83.108541 307.584 
L 83.108541 307.583835 
L 78.470634 307.583835 
z
" clip-path="url(#p5cdffe97ed)" style="fill: #1f77b4"/>
   </g>
   <g id="patch_5">
    <path d="M 83.108541 307.584 
L 87.746524 307.584 
L 87.746524 307.583267 
L 83.108541 307.583267 
z
" clip-path="url(#p5cdffe97ed)" style="fill: #1f77b4"/>
   </g>
   <g id="patch_6">
    <path d="M 87.746524 307.584 
L 92.384431 307.584 
L 92.384431 307.581448 
L 87.746524 307.581448 
z
" clip-path="url(#p5cdffe97ed)" style="fill: #1f77b4"/>
   </g>
   <g id="patch_7">
    <path d="M 92.384431 307.584 
L 97.022338 307.584 
L 97.022338 307.578683 
L 92.384431 307.578683 
z
" clip-path="url(#p5cdffe97ed)" style="fill: #1f77b4"/>
   </g>
   <g id="patch_8">
    <path d="M 97.022338 307.584 
L 101.660244 307.584 
L 101.660244 307.569112 
L 97.022338 307.569112 
z
" clip-path="url(#p5cdffe97ed)" style="fill: #1f77b4"/>
   </g>
   <g id="patch_9">
    <path d="M 101.660244 307.584 
L 106.298151 307.584 
L 106.298151 307.541086 
L 101.660244 307.541086 
z
" clip-path="url(#p5cdffe97ed)" style="fill: #1f77b4"/>
   </g>
   <g id="patch_10">
    <path d="M 106.298151 307.584 
L 110.936134 307.584 
L 110.936134 307.491745 
L 106.298151 307.491745 
z
" clip-path="url(#p5cdffe97ed)" style="fill: #1f77b4"/>
   </g>
   <g id="patch_11">
    <path d="M 110.936134 307.584 
L 115.574041 307.584 
L 115.574041 307.385074 
L 110.936134 307.385074 
z
" clip-path="url(#p5cdffe97ed)" style="fill: #1f77b4"/>
   </g>
   <g id="patch_12">
    <path d="M 115.574041 307.584 
L 120.211948 307.584 
L 120.211948 307.176743 
L 115.574041 307.176743 
z
" clip-path="url(#p5cdffe97ed)" style="fill: #1f77b4"/>
   </g>
   <g id="patch_13">
    <path d="M 120.211948 307.584 
L 124.849855 307.584 
L 124.849855 306.812235 
L 120.211948 306.812235 
z
" clip-path="url(#p5cdffe97ed)" style="fill: #1f77b4"/>
   </g>
   <g id="patch_14">
    <path d="M 124.849855 307.584 
L 129.487762 307.584 
L 129.487762 306.206691 
L 124.849855 306.206691 
z
" clip-path="url(#p5cdffe97ed)" style="fill: #1f77b4"/>
   </g>
   <g id="patch_15">
    <path d="M 129.487762 307.584 
L 134.125745 307.584 
L 134.125745 304.767303 
L 129.487762 304.767303 
z
" clip-path="url(#p5cdffe97ed)" style="fill: #1f77b4"/>
   </g>
   <g id="patch_16">
    <path d="M 134.125745 307.584 
L 138.763652 307.584 
L 138.763652 303.638025 
L 134.125745 303.638025 
z
" clip-path="url(#p5cdffe97ed)" style="fill: #1f77b4"/>
   </g>
   <g id="patch_17">
    <path d="M 138.763652 307.584 
L 143.401558 307.584 
L 143.401558 301.737573 
L 138.763652 301.737573 
z
" clip-path="url(#p5cdffe97ed)" style="fill: #1f77b4"/>
   </g>
   <g id="patch_18">
    <path d="M 143.401558 307.584 
L 148.039465 307.584 
L 148.039465 299.482538 
L 143.401558 299.482538 
z
" clip-path="url(#p5cdffe97ed)" style="fill: #1f77b4"/>
   </g>
   <g id="patch_19">
    <path d="M 148.039465 307.584 
L 152.677372 307.584 
L 152.677372 296.987742 
L 148.039465 296.987742 
z
" clip-path="url(#p5cdffe97ed)" style="fill: #1f77b4"/>
   </g>
   <g id="patch_20">
    <path d="M 152.677372 307.584 
L 157.315355 307.584 
L 157.315355 294.57393 
L 152.677372 294.57393 
z
" clip-path="url(#p5cdffe97ed)" style="fill: #1f77b4"/>
   </g>
   <g id="patch_21">
    <path d="M 157.315355 307.584 
L 161.953262 307.584 
L 161.953262 289.891637 
L 157.315355 289.891637 
z
" clip-path="url(#p5cdffe97ed)" style="fill: #1f77b4"/>
   </g>
   <g id="patch_22">
    <path d="M 161.953262 307.584 
L 166.591169 307.584 
L 166.591169 291.088287 
L 161.953262 291.088287 
z
" clip-path="url(#p5cdffe97ed)" style="fill: #1f77b4"/>
   </g>
   <g id="patch_23">
    <path d="M 166.591169 307.584 
L 171.229076 307.584 
L 171.229076 290.795381 
L 166.591169 290.795381 
z
" clip-path="url(#p5cdffe97ed)" style="fill: #1f77b4"/>
   </g>
   <g id="patch_24">
    <path d="M 171.229076 307.584 
L 175.866982 307.584 
L 175.866982 291.52116 
L 171.229076 291.52116 
z
" clip-path="url(#p5cdffe97ed)" style="fill: #1f77b4"/>
   </g>
   <g id="patch_25">
    <path d="M 175.866982 307.584 
L 180.504966 307.584 
L 180.504966 293.046541 
L 175.866982 293.046541 
z
" clip-path="url(#p5cdffe97ed)" style="fill: #1f77b4"/>
   </g>
   <g id="patch_26">
    <path d="M 180.504966 307.584 
L 185.142872 307.584 
L 185.142872 295.087361 
L 180.504966 295.087361 
z
" clip-path="url(#p5cdffe97ed)" style="fill: #1f77b4"/>
   </g>
   <g id="patch_27">
    <path d="M 185.142872 307.584 
L 189.780779 307.584 
L 189.780779 297.354992 
L 185.142872 297.354992 
z
" clip-path="url(#p5cdffe97ed)" style="fill: #1f77b4"/>
   </g>
   <g id="patch_28">
    <path d="M 189.780779 307.584 
L 194.418686 307.584 
L 194.418686 299.523656 
L 189.780779 299.523656 
z
" clip-path="url(#p5cdffe97ed)" style="fill: #1f77b4"/>
   </g>
   <g id="patch_29">
    <path d="M 194.418686 307.584 
L 199.056593 307.584 
L 199.056593 301.394616 
L 194.418686 301.394616 
z
" clip-path="url(#p5cdffe97ed)" style="fill: #1f77b4"/>
   </g>
   <g id="patch_30">
    <path d="M 199.056593 307.584 
L 203.694576 307.584 
L 203.694576 302.796572 
L 199.056593 302.796572 
z
" clip-path="url(#p5cdffe97ed)" style="fill: #1f77b4"/>
   </g>
   <g id="patch_31">
    <path d="M 203.694576 307.584 
L 208.332483 307.584 
L 208.332483 303.609266 
L 203.694576 303.609266 
z
" clip-path="url(#p5cdffe97ed)" style="fill: #1f77b4"/>
   </g>
   <g id="patch_32">
    <path d="M 208.332483 307.584 
L 212.97039 307.584 
L 212.97039 303.808452 
L 208.332483 303.808452 
z
" clip-path="url(#p5cdffe97ed)" style="fill: #1f77b4"/>
   </g>
   <g id="patch_33">
    <path d="M 212.97039 307.584 
L 217.608296 307.584 
L 217.608296 303.129273 
L 212.97039 303.129273 
z
" clip-path="url(#p5cdffe97ed)" style="fill: #1f77b4"/>
   </g>
   <g id="patch_34">
    <path d="M 217.608296 307.584 
L 222.246203 307.584 
L 222.246203 301.205025 
L 217.608296 301.205025 
z
" clip-path="url(#p5cdffe97ed)" style="fill: #1f77b4"/>
   </g>
   <g id="patch_35">
    <path d="M 222.246203 307.584 
L 226.884186 307.584 
L 226.884186 299.519142 
L 222.246203 299.519142 
z
" clip-path="url(#p5cdffe97ed)" style="fill: #1f77b4"/>
   </g>
   <g id="patch_36">
    <path d="M 226.884186 307.584 
L 231.522093 307.584 
L 231.522093 288.866193 
L 226.884186 288.866193 
z
" clip-path="url(#p5cdffe97ed)" style="fill: #1f77b4"/>
   </g>
   <g id="patch_37">
    <path d="M 231.522093 307.584 
L 236.16 307.584 
L 236.16 285.908112 
L 231.522093 285.908112 
z
" clip-path="url(#p5cdffe97ed)" style="fill: #1f77b4"/>
   </g>
   <g id="patch_38">
    <path d="M 236.16 307.584 
L 240.797907 307.584 
L 240.797907 267.897912 
L 236.16 267.897912 
z
" clip-path="url(#p5cdffe97ed)" style="fill: #1f77b4"/>
   </g>
   <g id="patch_39">
    <path d="M 240.797907 307.584 
L 245.435814 307.584 
L 245.435814 247.474467 
L 240.797907 247.474467 
z
" clip-path="url(#p5cdffe97ed)" style="fill: #1f77b4"/>
   </g>
   <g id="patch_40">
    <path d="M 245.435814 307.584 
L 250.073797 307.584 
L 250.073797 220.775906 
L 245.435814 220.775906 
z
" clip-path="url(#p5cdffe97ed)" style="fill: #1f77b4"/>
   </g>
   <g id="patch_41">
    <path d="M 250.073797 307.584 
L 254.711704 307.584 
L 254.711704 188.46087 
L 250.073797 188.46087 
z
" clip-path="url(#p5cdffe97ed)" style="fill: #1f77b4"/>
   </g>
   <g id="patch_42">
    <path d="M 254.711704 307.584 
L 259.34961 307.584 
L 259.34961 181.14209 
L 254.711704 181.14209 
z
" clip-path="url(#p5cdffe97ed)" style="fill: #1f77b4"/>
   </g>
   <g id="patch_43">
    <path d="M 259.34961 307.584 
L 263.987517 307.584 
L 263.987517 122.98736 
L 259.34961 122.98736 
z
" clip-path="url(#p5cdffe97ed)" style="fill: #1f77b4"/>
   </g>
   <g id="patch_44">
    <path d="M 263.987517 307.584 
L 268.625424 307.584 
L 268.625424 90.985624 
L 263.987517 90.985624 
z
" clip-path="url(#p5cdffe97ed)" style="fill: #1f77b4"/>
   </g>
   <g id="patch_45">
    <path d="M 268.625424 307.584 
L 273.263407 307.584 
L 273.263407 66.619655 
L 268.625424 66.619655 
z
" clip-path="url(#p5cdffe97ed)" style="fill: #1f77b4"/>
   </g>
   <g id="patch_46">
    <path d="M 273.263407 307.584 
L 277.901314 307.584 
L 277.901314 54.144 
L 273.263407 54.144 
z
" clip-path="url(#p5cdffe97ed)" style="fill: #1f77b4"/>
   </g>
   <g id="patch_47">
    <path d="M 277.901314 307.584 
L 282.539221 307.584 
L 282.539221 55.534472 
L 277.901314 55.534472 
z
" clip-path="url(#p5cdffe97ed)" style="fill: #1f77b4"/>
   </g>
   <g id="patch_48">
    <path d="M 282.539221 307.584 
L 287.177128 307.584 
L 287.177128 108.268273 
L 282.539221 108.268273 
z
" clip-path="url(#p5cdffe97ed)" style="fill: #1f77b4"/>
   </g>
   <g id="patch_49">
    <path d="M 287.177128 307.584 
L 291.815034 307.584 
L 291.815034 91.51796 
L 287.177128 91.51796 
z
" clip-path="url(#p5cdffe97ed)" style="fill: #1f77b4"/>
   </g>
   <g id="patch_50">
    <path d="M 291.815034 307.584 
L 296.453018 307.584 
L 296.453018 123.993828 
L 291.815034 123.993828 
z
" clip-path="url(#p5cdffe97ed)" style="fill: #1f77b4"/>
   </g>
   <g id="patch_51">
    <path d="M 296.453018 307.584 
L 301.090924 307.584 
L 301.090924 182.15378 
L 296.453018 182.15378 
z
" clip-path="url(#p5cdffe97ed)" style="fill: #1f77b4"/>
   </g>
   <g id="patch_52">
    <path d="M 301.090924 307.584 
L 305.728831 307.584 
L 305.728831 189.7994 
L 301.090924 189.7994 
z
" clip-path="url(#p5cdffe97ed)" style="fill: #1f77b4"/>
   </g>
   <g id="patch_53">
    <path d="M 305.728831 307.584 
L 310.366738 307.584 
L 310.366738 222.201682 
L 305.728831 222.201682 
z
" clip-path="url(#p5cdffe97ed)" style="fill: #1f77b4"/>
   </g>
   <g id="patch_54">
    <path d="M 310.366738 307.584 
L 315.004645 307.584 
L 315.004645 257.15415 
L 310.366738 257.15415 
z
" clip-path="url(#p5cdffe97ed)" style="fill: #1f77b4"/>
   </g>
   <g id="patch_55">
    <path d="M 315.004645 307.584 
L 319.642628 307.584 
L 319.642628 266.555932 
L 315.004645 266.555932 
z
" clip-path="url(#p5cdffe97ed)" style="fill: #1f77b4"/>
   </g>
   <g id="patch_56">
    <path d="M 319.642628 307.584 
L 324.280535 307.584 
L 324.280535 285.521367 
L 319.642628 285.521367 
z
" clip-path="url(#p5cdffe97ed)" style="fill: #1f77b4"/>
   </g>
   <g id="patch_57">
    <path d="M 324.280535 307.584 
L 328.918442 307.584 
L 328.918442 291.238651 
L 324.280535 291.238651 
z
" clip-path="url(#p5cdffe97ed)" style="fill: #1f77b4"/>
   </g>
   <g id="patch_58">
    <path d="M 328.918442 307.584 
L 333.556348 307.584 
L 333.556348 298.44776 
L 328.918442 298.44776 
z
" clip-path="url(#p5cdffe97ed)" style="fill: #1f77b4"/>
   </g>
   <g id="patch_59">
    <path d="M 333.556348 307.584 
L 338.194255 307.584 
L 338.194255 303.361448 
L 333.556348 303.361448 
z
" clip-path="url(#p5cdffe97ed)" style="fill: #1f77b4"/>
   </g>
   <g id="patch_60">
    <path d="M 338.194255 307.584 
L 342.832238 307.584 
L 342.832238 304.874233 
L 338.194255 304.874233 
z
" clip-path="url(#p5cdffe97ed)" style="fill: #1f77b4"/>
   </g>
   <g id="patch_61">
    <path d="M 342.832238 307.584 
L 347.470145 307.584 
L 347.470145 306.44267 
L 342.832238 306.44267 
z
" clip-path="url(#p5cdffe97ed)" style="fill: #1f77b4"/>
   </g>
   <g id="patch_62">
    <path d="M 347.470145 307.584 
L 352.108052 307.584 
L 352.108052 306.913565 
L 347.470145 306.913565 
z
" clip-path="url(#p5cdffe97ed)" style="fill: #1f77b4"/>
   </g>
   <g id="patch_63">
    <path d="M 352.108052 307.584 
L 356.745959 307.584 
L 356.745959 307.331692 
L 352.108052 307.331692 
z
" clip-path="url(#p5cdffe97ed)" style="fill: #1f77b4"/>
   </g>
   <g id="patch_64">
    <path d="M 356.745959 307.584 
L 361.383866 307.584 
L 361.383866 307.448807 
L 356.745959 307.448807 
z
" clip-path="url(#p5cdffe97ed)" style="fill: #1f77b4"/>
   </g>
   <g id="patch_65">
    <path d="M 361.383866 307.584 
L 366.021849 307.584 
L 366.021849 307.536454 
L 361.383866 307.536454 
z
" clip-path="url(#p5cdffe97ed)" style="fill: #1f77b4"/>
   </g>
   <g id="patch_66">
    <path d="M 366.021849 307.584 
L 370.659756 307.584 
L 370.659756 307.561338 
L 366.021849 307.561338 
z
" clip-path="url(#p5cdffe97ed)" style="fill: #1f77b4"/>
   </g>
   <g id="patch_67">
    <path d="M 370.659756 307.584 
L 375.297662 307.584 
L 375.297662 307.57658 
L 370.659756 307.57658 
z
" clip-path="url(#p5cdffe97ed)" style="fill: #1f77b4"/>
   </g>
   <g id="patch_68">
    <path d="M 375.297662 307.584 
L 379.935569 307.584 
L 379.935569 307.580833 
L 375.297662 307.580833 
z
" clip-path="url(#p5cdffe97ed)" style="fill: #1f77b4"/>
   </g>
   <g id="patch_69">
    <path d="M 379.935569 307.584 
L 384.573476 307.584 
L 384.573476 307.583055 
L 379.935569 307.583055 
z
" clip-path="url(#p5cdffe97ed)" style="fill: #1f77b4"/>
   </g>
   <g id="patch_70">
    <path d="M 384.573476 307.584 
L 389.211459 307.584 
L 389.211459 307.583716 
L 384.573476 307.583716 
z
" clip-path="url(#p5cdffe97ed)" style="fill: #1f77b4"/>
   </g>
   <g id="patch_71">
    <path d="M 389.211459 307.584 
L 393.849366 307.584 
L 393.849366 307.583835 
L 389.211459 307.583835 
z
" clip-path="url(#p5cdffe97ed)" style="fill: #1f77b4"/>
   </g>
   <g id="patch_72">
    <path d="M 393.849366 307.584 
L 398.487273 307.584 
L 398.487273 307.583929 
L 393.849366 307.583929 
z
" clip-path="url(#p5cdffe97ed)" style="fill: #1f77b4"/>
   </g>
   <g id="matplotlib.axis_1">
    <g id="xtick_1">
     <g id="line2d_1">
      <path d="M 117.593417 307.584 
L 117.593417 41.472 
" clip-path="url(#p5cdffe97ed)" style="fill: none; stroke: #b0b0b0; stroke-width: 0.8; stroke-linecap: square"/>
     </g>
     <g id="line2d_2">
      <defs>
       <path id="m45af156527" d="M 0 0 
L 0 3.5 
" style="stroke: #000000; stroke-width: 0.8"/>
      </defs>
      <g>
       <use xlink:href="#m45af156527" x="117.593417" y="307.584" style="stroke: #000000; stroke-width: 0.8"/>
      </g>
     </g>
     <g id="text_1">
      <!-- $\mathdefault{0.55}$ -->
      <g transform="translate(108.73771 321.502498) scale(0.1 -0.1)">
       <defs>
        <path id="CMR17-30" d="M 2688 2038 
C 2688 2430 2682 3099 2413 3613 
C 2176 4063 1798 4224 1466 4224 
C 1158 4224 768 4082 525 3620 
C 269 3137 243 2539 243 2038 
C 243 1671 250 1112 448 623 
C 723 -39 1216 -128 1466 -128 
C 1760 -128 2208 -7 2470 604 
C 2662 1048 2688 1568 2688 2038 
z
M 1466 -26 
C 1056 -26 813 328 723 816 
C 653 1196 653 1749 653 2109 
C 653 2604 653 3015 736 3407 
C 858 3954 1216 4121 1466 4121 
C 1728 4121 2067 3947 2189 3420 
C 2272 3054 2278 2623 2278 2109 
C 2278 1691 2278 1176 2202 797 
C 2067 96 1690 -26 1466 -26 
z
" transform="scale(0.015625)"/>
        <path id="CMMI12-3a" d="M 1178 307 
C 1178 492 1024 620 870 620 
C 685 620 557 467 557 313 
C 557 128 710 0 864 0 
C 1050 0 1178 153 1178 307 
z
" transform="scale(0.015625)"/>
        <path id="CMR17-35" d="M 730 3750 
C 794 3724 1056 3641 1325 3641 
C 1920 3641 2246 3961 2432 4140 
C 2432 4191 2432 4224 2394 4224 
C 2387 4224 2374 4224 2323 4198 
C 2099 4102 1837 4032 1517 4032 
C 1325 4032 1037 4055 723 4191 
C 653 4224 640 4224 634 4224 
C 602 4224 595 4217 595 4090 
L 595 2231 
C 595 2113 595 2080 659 2080 
C 691 2080 704 2093 736 2139 
C 941 2435 1222 2560 1542 2560 
C 1766 2560 2246 2415 2246 1293 
C 2246 1087 2246 716 2054 422 
C 1894 159 1645 25 1370 25 
C 947 25 518 319 403 812 
C 429 806 480 793 506 793 
C 589 793 749 838 749 1036 
C 749 1209 627 1280 506 1280 
C 358 1280 262 1190 262 1011 
C 262 454 704 -128 1382 -128 
C 2042 -128 2669 441 2669 1267 
C 2669 2054 2170 2662 1549 2662 
C 1222 2662 947 2540 730 2304 
L 730 3750 
z
" transform="scale(0.015625)"/>
       </defs>
       <use xlink:href="#CMR17-30" transform="scale(0.996264)"/>
       <use xlink:href="#CMMI12-3a" transform="translate(45.690477 0) scale(0.996264)"/>
       <use xlink:href="#CMR17-35" transform="translate(72.787654 0) scale(0.996264)"/>
       <use xlink:href="#CMR17-35" transform="translate(118.478131 0) scale(0.996264)"/>
      </g>
     </g>
    </g>
    <g id="xtick_2">
     <g id="line2d_3">
      <path d="M 181.616558 307.584 
L 181.616558 41.472 
" clip-path="url(#p5cdffe97ed)" style="fill: none; stroke: #b0b0b0; stroke-width: 0.8; stroke-linecap: square"/>
     </g>
     <g id="line2d_4">
      <g>
       <use xlink:href="#m45af156527" x="181.616558" y="307.584" style="stroke: #000000; stroke-width: 0.8"/>
      </g>
     </g>
     <g id="text_2">
      <!-- $\mathdefault{0.60}$ -->
      <g transform="translate(172.760851 321.502498) scale(0.1 -0.1)">
       <defs>
        <path id="CMR17-36" d="M 678 2198 
C 678 3712 1395 4076 1811 4076 
C 1946 4076 2272 4049 2400 3782 
C 2298 3782 2106 3782 2106 3558 
C 2106 3385 2246 3328 2336 3328 
C 2394 3328 2566 3353 2566 3571 
C 2566 3987 2246 4224 1805 4224 
C 1043 4224 243 3411 243 2011 
C 243 257 966 -128 1478 -128 
C 2099 -128 2688 431 2688 1295 
C 2688 2101 2170 2688 1517 2688 
C 1126 2688 838 2430 678 1979 
L 678 2198 
z
M 1478 25 
C 691 25 691 1212 691 1450 
C 691 1914 909 2585 1504 2585 
C 1613 2585 1926 2585 2138 2140 
C 2253 1889 2253 1624 2253 1302 
C 2253 954 2253 696 2118 438 
C 1978 173 1773 25 1478 25 
z
" transform="scale(0.015625)"/>
       </defs>
       <use xlink:href="#CMR17-30" transform="scale(0.996264)"/>
       <use xlink:href="#CMMI12-3a" transform="translate(45.690477 0) scale(0.996264)"/>
       <use xlink:href="#CMR17-36" transform="translate(72.787654 0) scale(0.996264)"/>
       <use xlink:href="#CMR17-30" transform="translate(118.478131 0) scale(0.996264)"/>
      </g>
     </g>
    </g>
    <g id="xtick_3">
     <g id="line2d_5">
      <path d="M 245.639699 307.584 
L 245.639699 41.472 
" clip-path="url(#p5cdffe97ed)" style="fill: none; stroke: #b0b0b0; stroke-width: 0.8; stroke-linecap: square"/>
     </g>
     <g id="line2d_6">
      <g>
       <use xlink:href="#m45af156527" x="245.639699" y="307.584" style="stroke: #000000; stroke-width: 0.8"/>
      </g>
     </g>
     <g id="text_3">
      <!-- $\mathdefault{0.65}$ -->
      <g transform="translate(236.783992 321.502498) scale(0.1 -0.1)">
       <use xlink:href="#CMR17-30" transform="scale(0.996264)"/>
       <use xlink:href="#CMMI12-3a" transform="translate(45.690477 0) scale(0.996264)"/>
       <use xlink:href="#CMR17-36" transform="translate(72.787654 0) scale(0.996264)"/>
       <use xlink:href="#CMR17-35" transform="translate(118.478131 0) scale(0.996264)"/>
      </g>
     </g>
    </g>
    <g id="xtick_4">
     <g id="line2d_7">
      <path d="M 309.66284 307.584 
L 309.66284 41.472 
" clip-path="url(#p5cdffe97ed)" style="fill: none; stroke: #b0b0b0; stroke-width: 0.8; stroke-linecap: square"/>
     </g>
     <g id="line2d_8">
      <g>
       <use xlink:href="#m45af156527" x="309.66284" y="307.584" style="stroke: #000000; stroke-width: 0.8"/>
      </g>
     </g>
     <g id="text_4">
      <!-- $\mathdefault{0.70}$ -->
      <g transform="translate(300.807133 321.502498) scale(0.1 -0.1)">
       <defs>
        <path id="CMR17-37" d="M 2886 3955 
L 2886 4096 
L 1382 4096 
C 634 4096 621 4166 595 4288 
L 480 4288 
L 294 3104 
L 410 3104 
C 429 3226 474 3552 550 3673 
C 589 3724 1062 3724 1171 3724 
L 2579 3724 
L 1869 2670 
C 1395 1961 1069 1003 1069 166 
C 1069 89 1069 -128 1299 -128 
C 1530 -128 1530 89 1530 172 
L 1530 466 
C 1530 1514 1709 2204 2003 2644 
L 2886 3955 
z
" transform="scale(0.015625)"/>
       </defs>
       <use xlink:href="#CMR17-30" transform="scale(0.996264)"/>
       <use xlink:href="#CMMI12-3a" transform="translate(45.690477 0) scale(0.996264)"/>
       <use xlink:href="#CMR17-37" transform="translate(72.787654 0) scale(0.996264)"/>
       <use xlink:href="#CMR17-30" transform="translate(118.478131 0) scale(0.996264)"/>
      </g>
     </g>
    </g>
    <g id="xtick_5">
     <g id="line2d_9">
      <path d="M 373.685981 307.584 
L 373.685981 41.472 
" clip-path="url(#p5cdffe97ed)" style="fill: none; stroke: #b0b0b0; stroke-width: 0.8; stroke-linecap: square"/>
     </g>
     <g id="line2d_10">
      <g>
       <use xlink:href="#m45af156527" x="373.685981" y="307.584" style="stroke: #000000; stroke-width: 0.8"/>
      </g>
     </g>
     <g id="text_5">
      <!-- $\mathdefault{0.75}$ -->
      <g transform="translate(364.830273 321.502498) scale(0.1 -0.1)">
       <use xlink:href="#CMR17-30" transform="scale(0.996264)"/>
       <use xlink:href="#CMMI12-3a" transform="translate(45.690477 0) scale(0.996264)"/>
       <use xlink:href="#CMR17-37" transform="translate(72.787654 0) scale(0.996264)"/>
       <use xlink:href="#CMR17-35" transform="translate(118.478131 0) scale(0.996264)"/>
      </g>
     </g>
    </g>
    <g id="text_6">
     <!-- $\theta$ = (quantization threshold)/$\sigma$ -->
     <g transform="translate(147.003127 337.900449) scale(0.14 -0.14)">
      <defs>
       <path id="CMMI12-12" d="M 2835 3200 
C 2835 3849 2630 4480 2106 4480 
C 1210 4480 256 2615 256 1215 
C 256 922 320 -64 992 -64 
C 1862 -64 2835 1755 2835 3200 
z
M 896 2304 
C 992 2679 1126 3213 1382 3665 
C 1594 4046 1818 4351 2099 4351 
C 2310 4351 2451 4173 2451 3563 
C 2451 3334 2432 3016 2246 2304 
L 896 2304 
z
M 2202 2112 
C 2042 1488 1907 1088 1677 687 
C 1491 362 1267 64 998 64 
C 800 64 640 216 640 846 
C 640 1259 742 1692 845 2112 
L 2202 2112 
z
" transform="scale(0.015625)"/>
       <path id="CMSS17-3d" d="M 4147 2048 
C 4243 2048 4339 2048 4339 2156 
C 4339 2272 4230 2272 4122 2272 
L 550 2272 
C 442 2272 333 2272 333 2156 
C 333 2048 429 2048 525 2048 
L 4147 2048 
z
M 4122 927 
C 4230 927 4339 927 4339 1043 
C 4339 1152 4243 1152 4147 1152 
L 525 1152 
C 429 1152 333 1152 333 1043 
C 333 927 442 927 550 927 
L 4122 927 
z
" transform="scale(0.015625)"/>
       <path id="CMSS17-28" d="M 1613 4800 
C 1267 4447 474 3627 474 1603 
C 474 -428 1267 -1242 1613 -1600 
L 2003 -1600 
C 1216 -781 960 366 960 1596 
C 960 2820 1203 3973 2003 4800 
L 1613 4800 
z
" transform="scale(0.015625)"/>
       <path id="CMSS17-71" d="M 2611 2816 
L 2138 2816 
L 2138 2425 
C 2112 2457 1818 2816 1318 2816 
C 736 2816 211 2218 211 1369 
C 211 585 653 -64 1229 -64 
C 1498 -64 1837 32 2125 307 
L 2125 -1280 
L 2611 -1280 
L 2611 2816 
z
M 2138 870 
C 2138 786 2138 669 1939 501 
C 1888 456 1747 326 1504 326 
C 1050 326 698 805 698 1369 
C 698 1998 1126 2412 1562 2412 
C 1926 2412 2138 2049 2138 1777 
L 2138 870 
z
" transform="scale(0.015625)"/>
       <path id="CMSS17-75" d="M 2618 2752 
L 2131 2752 
L 2131 976 
C 2131 500 1786 307 1421 307 
C 998 307 960 448 960 712 
L 960 2752 
L 474 2752 
L 474 680 
C 474 179 646 -64 1088 -64 
C 1306 -64 1798 -13 2144 307 
L 2144 -13 
L 2618 -13 
L 2618 2752 
z
" transform="scale(0.015625)"/>
       <path id="CMSS17-61" d="M 2406 1789 
C 2406 2399 1978 2816 1402 2816 
C 1120 2816 813 2764 461 2559 
L 499 2133 
C 659 2250 934 2438 1395 2438 
C 1722 2438 1920 2185 1920 1782 
L 1920 1536 
C 896 1504 256 1209 256 711 
C 256 452 416 -64 947 -64 
C 1043 -64 1562 -52 1933 224 
L 1933 -13 
L 2406 -13 
L 2406 1789 
z
M 1920 824 
C 1920 711 1920 559 1728 446 
C 1562 339 1350 326 1261 326 
C 941 326 723 503 723 723 
C 723 1165 1722 1209 1920 1216 
L 1920 824 
z
" transform="scale(0.015625)"/>
       <path id="CMSS17-6e" d="M 2618 1878 
C 2618 2283 2522 2816 1798 2816 
C 1389 2816 1120 2604 941 2386 
L 941 2783 
L 474 2783 
L 474 0 
L 960 0 
L 960 1556 
C 960 1962 1114 2425 1549 2425 
C 2112 2425 2131 2045 2131 1826 
L 2131 0 
L 2618 0 
L 2618 1878 
z
" transform="scale(0.015625)"/>
       <path id="CMSS17-74" d="M 1069 2380 
L 1901 2380 
L 1901 2752 
L 1069 2752 
L 1069 3520 
L 614 3520 
L 614 2752 
L 109 2752 
L 109 2380 
L 602 2380 
L 602 751 
C 602 384 685 -64 1107 -64 
C 1427 -64 1722 25 2003 172 
L 1901 551 
C 1747 416 1562 339 1363 339 
C 1082 339 1069 699 1069 860 
L 1069 2380 
z
" transform="scale(0.015625)"/>
       <path id="CMSS17-69" d="M 979 4224 
L 442 4224 
L 442 3686 
L 979 3686 
L 979 4224 
z
M 947 2752 
L 474 2752 
L 474 0 
L 947 0 
L 947 2752 
z
" transform="scale(0.015625)"/>
       <path id="CMSS17-7a" d="M 2400 2502 
L 2400 2752 
L 250 2752 
L 250 2367 
L 1069 2367 
C 1146 2367 1222 2374 1299 2374 
L 1747 2374 
L 166 262 
L 166 0 
L 2419 0 
L 2419 396 
L 1549 396 
C 1472 396 1395 390 1318 390 
L 826 390 
L 2400 2502 
z
" transform="scale(0.015625)"/>
       <path id="CMSS17-6f" d="M 2829 1356 
C 2829 2175 2221 2816 1504 2816 
C 768 2816 173 2156 173 1356 
C 173 544 787 -64 1498 -64 
C 2227 -64 2829 563 2829 1356 
z
M 1504 339 
C 1050 339 659 710 659 1407 
C 659 2150 1114 2425 1498 2425 
C 1914 2425 2342 2124 2342 1407 
C 2342 684 1926 339 1504 339 
z
" transform="scale(0.015625)"/>
       <path id="CMSS17-68" d="M 2618 1878 
C 2618 2283 2522 2816 1798 2816 
C 1395 2816 1133 2617 947 2399 
L 947 4416 
L 474 4416 
L 474 0 
L 960 0 
L 960 1556 
C 960 1962 1114 2425 1549 2425 
C 2112 2425 2131 2045 2131 1826 
L 2131 0 
L 2618 0 
L 2618 1878 
z
" transform="scale(0.015625)"/>
       <path id="CMSS17-72" d="M 954 1369 
C 954 1974 1395 2379 1958 2392 
L 1958 2816 
C 1549 2809 1165 2604 934 2270 
L 934 2783 
L 480 2783 
L 480 0 
L 954 0 
L 954 1369 
z
" transform="scale(0.015625)"/>
       <path id="CMSS17-65" d="M 2502 1375 
C 2502 1587 2490 2001 2285 2347 
C 2061 2713 1696 2816 1421 2816 
C 755 2816 192 2184 192 1363 
C 192 579 774 -64 1510 -64 
C 1798 -64 2150 19 2470 249 
C 2470 275 2458 414 2451 421 
C 2451 433 2432 629 2432 655 
C 2125 408 1773 326 1517 326 
C 1107 326 666 667 646 1375 
L 2502 1375 
z
M 698 1728 
C 781 2086 1062 2425 1421 2425 
C 1517 2425 1965 2412 2080 1728 
L 698 1728 
z
" transform="scale(0.015625)"/>
       <path id="CMSS17-73" d="M 2061 2623 
C 1683 2803 1389 2816 1197 2816 
C 742 2816 198 2655 198 2009 
C 198 1363 902 1222 1094 1183 
C 1389 1126 1715 1062 1715 742 
C 1715 339 1254 339 1171 339 
C 915 339 563 409 243 639 
L 166 211 
C 531 0 883 -64 1178 -64 
C 1965 -64 2163 416 2163 780 
C 2163 1094 1984 1305 1862 1401 
C 1651 1567 1574 1587 1050 1695 
C 960 1708 646 1779 646 2067 
C 646 2431 1050 2431 1139 2431 
C 1555 2431 1811 2303 1984 2207 
L 2061 2623 
z
" transform="scale(0.015625)"/>
       <path id="CMSS17-6c" d="M 947 4416 
L 474 4416 
L 474 0 
L 947 0 
L 947 4416 
z
" transform="scale(0.015625)"/>
       <path id="CMSS17-64" d="M 2611 4416 
L 2138 4416 
L 2138 2495 
C 1939 2662 1613 2816 1254 2816 
C 672 2816 211 2179 211 1375 
C 211 572 666 -64 1235 -64 
C 1677 -64 1971 172 2125 307 
L 2125 -13 
L 2611 -13 
L 2611 4416 
z
M 2125 851 
C 2125 760 2125 663 1926 488 
C 1798 378 1645 326 1498 326 
C 1152 326 698 585 698 1369 
C 698 2185 1210 2425 1562 2425 
C 1798 2425 1990 2308 2125 2114 
L 2125 851 
z
" transform="scale(0.015625)"/>
       <path id="CMSS17-29" d="M 723 -1600 
C 1069 -1248 1862 -428 1862 1596 
C 1862 3627 1069 4440 723 4800 
L 333 4800 
C 1120 3979 1376 2833 1376 1603 
C 1376 379 1133 -774 333 -1600 
L 723 -1600 
z
" transform="scale(0.015625)"/>
       <path id="CMSS17-2f" d="M 2637 4575 
C 2669 4658 2669 4671 2669 4684 
C 2669 4761 2611 4800 2560 4800 
C 2483 4800 2458 4748 2432 4671 
L 365 -1376 
C 333 -1460 333 -1472 333 -1485 
C 333 -1562 390 -1600 442 -1600 
C 518 -1600 544 -1549 570 -1472 
L 2637 4575 
z
" transform="scale(0.015625)"/>
       <path id="CMMI12-1b" d="M 3251 2406 
C 3334 2406 3546 2406 3546 2611 
C 3546 2752 3424 2752 3309 2752 
L 1894 2752 
C 934 2752 243 1685 243 932 
C 243 389 595 -64 1171 -64 
C 1926 -64 2752 746 2752 1704 
C 2752 1953 2694 2195 2541 2406 
L 3251 2406 
z
M 1178 64 
C 851 64 614 312 614 753 
C 614 1136 845 2406 1786 2406 
C 2061 2406 2368 2272 2368 1780 
C 2368 1557 2266 1021 2042 651 
C 1811 274 1466 64 1178 64 
z
" transform="scale(0.015625)"/>
      </defs>
      <use xlink:href="#CMMI12-12" transform="scale(0.996264)"/>
      <use xlink:href="#CMSS17-3d" transform="translate(79.398621 0) scale(0.996264)"/>
      <use xlink:href="#CMSS17-28" transform="translate(183.495668 0) scale(0.996264)"/>
      <use xlink:href="#CMSS17-71" transform="translate(219.929582 0) scale(0.996264)"/>
      <use xlink:href="#CMSS17-75" transform="translate(268.134525 0) scale(0.996264)"/>
      <use xlink:href="#CMSS17-61" transform="translate(316.339469 0) scale(0.996264)"/>
      <use xlink:href="#CMSS17-6e" transform="translate(361.261389 0) scale(0.996264)"/>
      <use xlink:href="#CMSS17-74" transform="translate(409.466332 0) scale(0.996264)"/>
      <use xlink:href="#CMSS17-69" transform="translate(443.297899 0) scale(0.996264)"/>
      <use xlink:href="#CMSS17-7a" transform="translate(465.478622 0) scale(0.996264)"/>
      <use xlink:href="#CMSS17-61" transform="translate(506.156494 0) scale(0.996264)"/>
      <use xlink:href="#CMSS17-74" transform="translate(551.078414 0) scale(0.996264)"/>
      <use xlink:href="#CMSS17-69" transform="translate(584.909981 0) scale(0.996264)"/>
      <use xlink:href="#CMSS17-6f" transform="translate(607.090704 0) scale(0.996264)"/>
      <use xlink:href="#CMSS17-6e" transform="translate(653.934328 0) scale(0.996264)"/>
      <use xlink:href="#CMSS17-74" transform="translate(733.368384 0) scale(0.996264)"/>
      <use xlink:href="#CMSS17-68" transform="translate(767.19995 0) scale(0.996264)"/>
      <use xlink:href="#CMSS17-72" transform="translate(815.404893 0) scale(0.996264)"/>
      <use xlink:href="#CMSS17-65" transform="translate(847.314666 0) scale(0.996264)"/>
      <use xlink:href="#CMSS17-73" transform="translate(888.953488 0) scale(0.996264)"/>
      <use xlink:href="#CMSS17-68" transform="translate(924.86703 0) scale(0.996264)"/>
      <use xlink:href="#CMSS17-6f" transform="translate(973.071973 0) scale(0.996264)"/>
      <use xlink:href="#CMSS17-6c" transform="translate(1019.915597 0) scale(0.996264)"/>
      <use xlink:href="#CMSS17-64" transform="translate(1042.09632 0) scale(0.996264)"/>
      <use xlink:href="#CMSS17-29" transform="translate(1090.301263 0) scale(0.996264)"/>
      <use xlink:href="#CMSS17-2f" transform="translate(1126.735177 0) scale(0.996264)"/>
      <use xlink:href="#CMMI12-1b" transform="translate(1173.578801 0) scale(0.996264)"/>
     </g>
    </g>
   </g>
   <g id="matplotlib.axis_2">
    <g id="ytick_1">
     <g id="line2d_11">
      <path d="M 57.6 307.584 
L 414.72 307.584 
" clip-path="url(#p5cdffe97ed)" style="fill: none; stroke: #b0b0b0; stroke-width: 0.8; stroke-linecap: square"/>
     </g>
     <g id="line2d_12">
      <defs>
       <path id="m3988453c9b" d="M 0 0 
L -3.5 0 
" style="stroke: #000000; stroke-width: 0.8"/>
      </defs>
      <g>
       <use xlink:href="#m3988453c9b" x="57.6" y="307.584" style="stroke: #000000; stroke-width: 0.8"/>
      </g>
     </g>
     <g id="text_7">
      <!-- $\mathdefault{0.0}$ -->
      <g transform="translate(37.869921 311.043249) scale(0.1 -0.1)">
       <use xlink:href="#CMR17-30" transform="scale(0.996264)"/>
       <use xlink:href="#CMMI12-3a" transform="translate(45.690477 0) scale(0.996264)"/>
       <use xlink:href="#CMR17-30" transform="translate(72.787654 0) scale(0.996264)"/>
      </g>
     </g>
    </g>
    <g id="ytick_2">
     <g id="line2d_13">
      <path d="M 57.6 260.322003 
L 414.72 260.322003 
" clip-path="url(#p5cdffe97ed)" style="fill: none; stroke: #b0b0b0; stroke-width: 0.8; stroke-linecap: square"/>
     </g>
     <g id="line2d_14">
      <g>
       <use xlink:href="#m3988453c9b" x="57.6" y="260.322003" style="stroke: #000000; stroke-width: 0.8"/>
      </g>
     </g>
     <g id="text_8">
      <!-- $\mathdefault{0.2}$ -->
      <g transform="translate(37.869921 263.781252) scale(0.1 -0.1)">
       <defs>
        <path id="CMR17-32" d="M 2669 990 
L 2554 990 
C 2490 537 2438 460 2413 422 
C 2381 371 1920 371 1830 371 
L 602 371 
C 832 620 1280 1073 1824 1596 
C 2214 1966 2669 2400 2669 3033 
C 2669 3788 2067 4224 1395 4224 
C 691 4224 262 3603 262 3027 
C 262 2777 448 2745 525 2745 
C 589 2745 781 2783 781 3007 
C 781 3206 614 3264 525 3264 
C 486 3264 448 3257 422 3244 
C 544 3788 915 4057 1306 4057 
C 1862 4057 2227 3616 2227 3033 
C 2227 2477 1901 1998 1536 1583 
L 262 147 
L 262 0 
L 2515 0 
L 2669 990 
z
" transform="scale(0.015625)"/>
       </defs>
       <use xlink:href="#CMR17-30" transform="scale(0.996264)"/>
       <use xlink:href="#CMMI12-3a" transform="translate(45.690477 0) scale(0.996264)"/>
       <use xlink:href="#CMR17-32" transform="translate(72.787654 0) scale(0.996264)"/>
      </g>
     </g>
    </g>
    <g id="ytick_3">
     <g id="line2d_15">
      <path d="M 57.6 213.060006 
L 414.72 213.060006 
" clip-path="url(#p5cdffe97ed)" style="fill: none; stroke: #b0b0b0; stroke-width: 0.8; stroke-linecap: square"/>
     </g>
     <g id="line2d_16">
      <g>
       <use xlink:href="#m3988453c9b" x="57.6" y="213.060006" style="stroke: #000000; stroke-width: 0.8"/>
      </g>
     </g>
     <g id="text_9">
      <!-- $\mathdefault{0.4}$ -->
      <g transform="translate(37.869921 216.519256) scale(0.1 -0.1)">
       <defs>
        <path id="CMR17-34" d="M 2150 4147 
C 2150 4281 2144 4288 2029 4288 
L 128 1254 
L 128 1088 
L 1779 1088 
L 1779 460 
C 1779 230 1766 166 1318 166 
L 1197 166 
L 1197 0 
C 1402 12 1747 12 1965 12 
C 2182 12 2528 12 2733 0 
L 2733 166 
L 2611 166 
C 2163 166 2150 230 2150 460 
L 2150 1088 
L 2803 1088 
L 2803 1254 
L 2150 1254 
L 2150 4147 
z
M 1798 3723 
L 1798 1254 
L 256 1254 
L 1798 3723 
z
" transform="scale(0.015625)"/>
       </defs>
       <use xlink:href="#CMR17-30" transform="scale(0.996264)"/>
       <use xlink:href="#CMMI12-3a" transform="translate(45.690477 0) scale(0.996264)"/>
       <use xlink:href="#CMR17-34" transform="translate(72.787654 0) scale(0.996264)"/>
      </g>
     </g>
    </g>
    <g id="ytick_4">
     <g id="line2d_17">
      <path d="M 57.6 165.79801 
L 414.72 165.79801 
" clip-path="url(#p5cdffe97ed)" style="fill: none; stroke: #b0b0b0; stroke-width: 0.8; stroke-linecap: square"/>
     </g>
     <g id="line2d_18">
      <g>
       <use xlink:href="#m3988453c9b" x="57.6" y="165.79801" style="stroke: #000000; stroke-width: 0.8"/>
      </g>
     </g>
     <g id="text_10">
      <!-- $\mathdefault{0.6}$ -->
      <g transform="translate(37.869921 169.257259) scale(0.1 -0.1)">
       <use xlink:href="#CMR17-30" transform="scale(0.996264)"/>
       <use xlink:href="#CMMI12-3a" transform="translate(45.690477 0) scale(0.996264)"/>
       <use xlink:href="#CMR17-36" transform="translate(72.787654 0) scale(0.996264)"/>
      </g>
     </g>
    </g>
    <g id="ytick_5">
     <g id="line2d_19">
      <path d="M 57.6 118.536013 
L 414.72 118.536013 
" clip-path="url(#p5cdffe97ed)" style="fill: none; stroke: #b0b0b0; stroke-width: 0.8; stroke-linecap: square"/>
     </g>
     <g id="line2d_20">
      <g>
       <use xlink:href="#m3988453c9b" x="57.6" y="118.536013" style="stroke: #000000; stroke-width: 0.8"/>
      </g>
     </g>
     <g id="text_11">
      <!-- $\mathdefault{0.8}$ -->
      <g transform="translate(37.869921 121.995262) scale(0.1 -0.1)">
       <defs>
        <path id="CMR17-38" d="M 1741 2289 
C 2144 2494 2554 2803 2554 3298 
C 2554 3884 1990 4224 1472 4224 
C 890 4224 378 3800 378 3215 
C 378 3054 416 2777 666 2533 
C 730 2469 998 2276 1171 2154 
C 883 2006 211 1652 211 945 
C 211 282 838 -128 1459 -128 
C 2144 -128 2720 366 2720 1022 
C 2720 1607 2330 1877 2074 2051 
L 1741 2289 
z
M 902 2855 
C 851 2887 595 3086 595 3388 
C 595 3781 998 4076 1459 4076 
C 1965 4076 2336 3716 2336 3298 
C 2336 2700 1670 2359 1638 2359 
C 1632 2359 1626 2359 1574 2398 
L 902 2855 
z
M 2080 1536 
C 2176 1466 2483 1253 2483 861 
C 2483 385 2010 25 1472 25 
C 890 25 448 443 448 951 
C 448 1459 838 1884 1280 2083 
L 2080 1536 
z
" transform="scale(0.015625)"/>
       </defs>
       <use xlink:href="#CMR17-30" transform="scale(0.996264)"/>
       <use xlink:href="#CMMI12-3a" transform="translate(45.690477 0) scale(0.996264)"/>
       <use xlink:href="#CMR17-38" transform="translate(72.787654 0) scale(0.996264)"/>
      </g>
     </g>
    </g>
    <g id="ytick_6">
     <g id="line2d_21">
      <path d="M 57.6 71.274016 
L 414.72 71.274016 
" clip-path="url(#p5cdffe97ed)" style="fill: none; stroke: #b0b0b0; stroke-width: 0.8; stroke-linecap: square"/>
     </g>
     <g id="line2d_22">
      <g>
       <use xlink:href="#m3988453c9b" x="57.6" y="71.274016" style="stroke: #000000; stroke-width: 0.8"/>
      </g>
     </g>
     <g id="text_12">
      <!-- $\mathdefault{1.0}$ -->
      <g transform="translate(37.869921 74.733265) scale(0.1 -0.1)">
       <defs>
        <path id="CMR17-31" d="M 1702 4083 
C 1702 4217 1696 4224 1606 4224 
C 1357 3927 979 3833 621 3820 
C 602 3820 570 3820 563 3808 
C 557 3795 557 3782 557 3648 
C 755 3648 1088 3686 1344 3839 
L 1344 467 
C 1344 243 1331 166 781 166 
L 589 166 
L 589 0 
C 896 6 1216 12 1523 12 
C 1830 12 2150 6 2458 0 
L 2458 166 
L 2266 166 
C 1715 166 1702 236 1702 467 
L 1702 4083 
z
" transform="scale(0.015625)"/>
       </defs>
       <use xlink:href="#CMR17-31" transform="scale(0.996264)"/>
       <use xlink:href="#CMMI12-3a" transform="translate(45.690477 0) scale(0.996264)"/>
       <use xlink:href="#CMR17-30" transform="translate(72.787654 0) scale(0.996264)"/>
      </g>
     </g>
    </g>
    <g id="text_13">
     <!-- $\times\mathdefault{10^{7}}\mathdefault{}$ -->
     <g transform="translate(57.6 38.472) scale(0.1 -0.1)">
      <defs>
       <path id="CMSY10-2" d="M 2490 1775 
L 1210 3046 
C 1133 3123 1120 3136 1069 3136 
C 1005 3136 941 3078 941 3008 
C 941 2963 954 2950 1024 2880 
L 2304 1596 
L 1024 313 
C 954 243 941 230 941 185 
C 941 115 1005 57 1069 57 
C 1120 57 1133 70 1210 147 
L 2483 1418 
L 3808 95 
C 3821 89 3866 57 3904 57 
C 3981 57 4032 115 4032 185 
C 4032 198 4032 223 4013 255 
C 4006 268 2989 1271 2669 1596 
L 3840 2765 
C 3872 2803 3968 2886 4000 2925 
C 4006 2937 4032 2963 4032 3008 
C 4032 3078 3981 3136 3904 3136 
C 3853 3136 3827 3110 3757 3040 
L 2490 1775 
z
" transform="scale(0.015625)"/>
      </defs>
      <use xlink:href="#CMSY10-2" transform="scale(0.996264)"/>
      <use xlink:href="#CMR17-31" transform="translate(77.487468 0) scale(0.996264)"/>
      <use xlink:href="#CMR17-30" transform="translate(123.177945 0) scale(0.996264)"/>
      <use xlink:href="#CMR17-37" transform="translate(168.868422 36.153639) scale(0.697382)"/>
     </g>
    </g>
   </g>
   <g id="patch_73">
    <path d="M 57.6 307.584 
L 57.6 41.472 
" style="fill: none; stroke: #000000; stroke-width: 0.8; stroke-linejoin: miter; stroke-linecap: square"/>
   </g>
   <g id="patch_74">
    <path d="M 414.72 307.584 
L 414.72 41.472 
" style="fill: none; stroke: #000000; stroke-width: 0.8; stroke-linejoin: miter; stroke-linecap: square"/>
   </g>
   <g id="patch_75">
    <path d="M 57.6 307.584 
L 414.72 307.584 
" style="fill: none; stroke: #000000; stroke-width: 0.8; stroke-linejoin: miter; stroke-linecap: square"/>
   </g>
   <g id="patch_76">
    <path d="M 57.6 41.472 
L 414.72 41.472 
" style="fill: none; stroke: #000000; stroke-width: 0.8; stroke-linejoin: miter; stroke-linecap: square"/>
   </g>
   <g id="text_14">
    <!-- File: (7652068 frames) -->
    <g transform="translate(70.404628 62.76096) scale(0.14 -0.14)">
     <defs>
      <path id="CMSS17-46" d="M 2918 1984 
L 2918 2374 
L 1101 2374 
L 1101 3993 
L 1882 3993 
C 1958 3993 2035 3987 2112 3987 
L 3168 3987 
L 3168 4403 
L 563 4403 
L 563 0 
L 1101 0 
L 1101 1984 
L 2918 1984 
z
" transform="scale(0.015625)"/>
      <path id="CMSS17-3a" d="M 1088 2752 
L 576 2752 
L 576 2239 
L 1088 2239 
L 1088 2752 
z
M 576 512 
L 576 0 
L 1088 0 
L 1088 512 
L 576 512 
z
" transform="scale(0.015625)"/>
      <path id="CMSS17-37" d="M 1389 3788 
C 1466 3788 1542 3795 1619 3795 
L 2355 3795 
C 1440 2715 915 1350 915 -64 
L 1427 -64 
C 1427 1305 1875 2695 2752 3807 
L 2752 4224 
L 250 4224 
L 250 3788 
L 1389 3788 
z
" transform="scale(0.015625)"/>
      <path id="CMSS17-36" d="M 2496 4159 
C 2227 4268 2035 4288 1856 4288 
C 1024 4288 250 3408 250 2023 
C 250 268 986 -128 1510 -128 
C 1798 -128 2086 -39 2362 281 
C 2643 619 2752 900 2752 1392 
C 2752 2183 2362 2886 1779 2886 
C 1357 2886 992 2662 768 2381 
C 832 3290 1254 3897 1862 3897 
C 2029 3897 2246 3871 2496 3760 
L 2496 4159 
z
M 774 1372 
C 774 1423 774 1455 781 1551 
C 781 2049 1069 2496 1536 2496 
C 1837 2496 1990 2336 2106 2138 
C 2240 1889 2246 1653 2246 1392 
C 2246 1143 2246 894 2099 638 
C 1978 441 1818 268 1510 268 
C 902 268 800 1117 774 1372 
z
" transform="scale(0.015625)"/>
      <path id="CMSS17-35" d="M 934 3814 
L 2502 3814 
L 2502 4224 
L 467 4224 
L 467 1830 
L 896 1830 
C 1011 2103 1248 2304 1555 2304 
C 1843 2304 2163 2044 2163 1299 
C 2163 502 1709 268 1376 268 
C 966 268 589 521 422 871 
L 218 508 
C 512 51 992 -128 1376 -128 
C 2118 -128 2701 508 2701 1286 
C 2701 2083 2182 2694 1562 2694 
C 1338 2694 1120 2617 934 2464 
L 934 3814 
z
" transform="scale(0.015625)"/>
      <path id="CMSS17-32" d="M 1651 1353 
C 1830 1538 2099 1761 2285 1984 
C 2464 2201 2701 2507 2701 2953 
C 2701 3655 2227 4288 1421 4288 
C 787 4288 422 3891 250 3272 
L 499 2928 
C 640 3508 838 3878 1338 3878 
C 1888 3878 2195 3431 2195 2940 
C 2195 2354 1747 1901 1408 1563 
C 1030 1187 659 805 301 409 
L 301 0 
L 2701 0 
L 2701 435 
L 1613 435 
C 1536 435 1459 428 1382 428 
L 742 428 
L 742 435 
L 1651 1353 
z
" transform="scale(0.015625)"/>
      <path id="CMSS17-30" d="M 2758 2073 
C 2758 2439 2752 3120 2490 3647 
C 2227 4153 1805 4288 1504 4288 
C 1069 4288 698 4031 506 3621 
C 301 3191 243 2748 243 2073 
C 243 1611 262 1046 493 551 
C 755 6 1197 -128 1498 -128 
C 1894 -128 2278 83 2496 525 
C 2720 988 2758 1495 2758 2073 
z
M 1498 262 
C 1011 262 864 821 819 1007 
C 742 1328 730 1636 730 2144 
C 730 2542 730 2992 851 3345 
C 998 3756 1254 3897 1498 3897 
C 1971 3897 2125 3422 2176 3255 
C 2272 2915 2272 2516 2272 2144 
C 2272 1546 2272 262 1498 262 
z
" transform="scale(0.015625)"/>
      <path id="CMSS17-38" d="M 1933 2246 
C 2419 2406 2669 2793 2669 3174 
C 2669 3774 2157 4288 1504 4288 
C 826 4288 333 3755 333 3174 
C 333 2799 576 2412 1069 2246 
C 442 2003 250 1516 250 1152 
C 250 448 819 -128 1498 -128 
C 2202 -128 2752 460 2752 1152 
C 2752 1574 2502 2022 1933 2246 
z
M 1504 2438 
C 1075 2438 787 2728 787 3167 
C 787 3613 1075 3897 1504 3897 
C 1901 3897 2214 3639 2214 3167 
C 2214 2703 1907 2438 1504 2438 
z
M 1504 268 
C 1139 268 749 518 749 1158 
C 749 1817 1184 2048 1498 2048 
C 1843 2048 2253 1804 2253 1158 
C 2253 492 1830 268 1504 268 
z
" transform="scale(0.015625)"/>
      <path id="CMSS17-66" d="M 1075 2380 
L 1722 2380 
L 1722 2752 
L 1062 2752 
L 1062 3563 
C 1062 4013 1408 4089 1606 4089 
C 1670 4089 1850 4089 2080 4007 
L 2080 4428 
C 1933 4460 1754 4480 1613 4480 
C 1018 4480 602 3994 602 3366 
L 602 2752 
L 160 2752 
L 160 2380 
L 602 2380 
L 602 0 
L 1075 0 
L 1075 2380 
z
" transform="scale(0.015625)"/>
      <path id="CMSS17-6d" d="M 4288 1878 
C 4288 2309 4179 2816 3462 2816 
C 2982 2816 2694 2515 2566 2328 
C 2451 2668 2182 2816 1798 2816 
C 1363 2816 1088 2566 941 2386 
L 941 2783 
L 474 2783 
L 474 0 
L 960 0 
L 960 1556 
C 960 1936 1101 2425 1555 2425 
C 2138 2425 2138 2013 2138 1826 
L 2138 0 
L 2624 0 
L 2624 1556 
C 2624 1936 2765 2425 3219 2425 
C 3802 2425 3802 2013 3802 1826 
L 3802 0 
L 4288 0 
L 4288 1878 
z
" transform="scale(0.015625)"/>
     </defs>
     <use xlink:href="#CMSS17-46" transform="scale(0.996264)"/>
     <use xlink:href="#CMSS17-69" transform="translate(53.289559 0) scale(0.996264)"/>
     <use xlink:href="#CMSS17-6c" transform="translate(75.470282 0) scale(0.996264)"/>
     <use xlink:href="#CMSS17-65" transform="translate(97.651005 0) scale(0.996264)"/>
     <use xlink:href="#CMSS17-3a" transform="translate(139.289827 0) scale(0.996264)"/>
     <use xlink:href="#CMSS17-28" transform="translate(206.952839 0) scale(0.996264)"/>
     <use xlink:href="#CMSS17-37" transform="translate(243.386753 0) scale(0.996264)"/>
     <use xlink:href="#CMSS17-36" transform="translate(290.230377 0) scale(0.996264)"/>
     <use xlink:href="#CMSS17-35" transform="translate(337.074 0) scale(0.996264)"/>
     <use xlink:href="#CMSS17-32" transform="translate(383.917624 0) scale(0.996264)"/>
     <use xlink:href="#CMSS17-30" transform="translate(430.761247 0) scale(0.996264)"/>
     <use xlink:href="#CMSS17-36" transform="translate(477.604871 0) scale(0.996264)"/>
     <use xlink:href="#CMSS17-38" transform="translate(524.448495 0) scale(0.996264)"/>
     <use xlink:href="#CMSS17-66" transform="translate(602.521231 0) scale(0.996264)"/>
     <use xlink:href="#CMSS17-72" transform="translate(631.14789 0) scale(0.996264)"/>
     <use xlink:href="#CMSS17-61" transform="translate(663.057662 0) scale(0.996264)"/>
     <use xlink:href="#CMSS17-6d" transform="translate(707.979583 0) scale(0.996264)"/>
     <use xlink:href="#CMSS17-65" transform="translate(782.208837 0) scale(0.996264)"/>
     <use xlink:href="#CMSS17-73" transform="translate(823.847659 0) scale(0.996264)"/>
     <use xlink:href="#CMSS17-29" transform="translate(859.761201 0) scale(0.996264)"/>
    </g>
   </g>
   <g id="text_15">
    <!-- rd1903_ft_100-0950.m5b -->
    <g transform="translate(70.404628 78.72768) scale(0.14 -0.14)">
     <defs>
      <path id="CMSS17-31" d="M 1818 4288 
L 1696 4288 
C 1350 3949 947 3902 538 3891 
L 538 3520 
C 723 3526 1024 3539 1325 3673 
L 1325 371 
L 570 371 
L 570 0 
L 2573 0 
L 2573 371 
L 1818 371 
L 1818 4288 
z
" transform="scale(0.015625)"/>
      <path id="CMSS17-39" d="M 435 172 
C 614 19 845 -128 1235 -128 
C 2010 -128 2752 738 2752 2136 
C 2752 3987 1952 4288 1523 4288 
C 1094 4288 819 4095 582 3789 
C 301 3438 250 3125 250 2761 
C 250 2327 326 2059 506 1753 
C 749 1356 973 1273 1222 1273 
C 1600 1273 1978 1459 2234 1778 
C 2189 908 1798 268 1235 268 
C 1005 268 819 340 634 516 
L 435 172 
z
M 2214 2774 
C 2221 2729 2221 2646 2221 2621 
C 2221 2085 1914 1664 1466 1664 
C 1171 1664 1018 1817 902 2015 
C 762 2263 755 2506 755 2761 
C 755 3010 755 3284 934 3559 
C 1069 3757 1235 3897 1523 3897 
C 2112 3897 2208 3036 2214 2774 
z
" transform="scale(0.015625)"/>
      <path id="CMSS17-33" d="M 1005 2060 
L 1440 2060 
C 2042 2060 2214 1532 2214 1164 
C 2214 662 1933 268 1472 268 
C 1114 268 608 449 320 926 
C 275 700 275 687 250 533 
C 550 89 1037 -128 1485 -128 
C 2214 -128 2752 481 2752 1158 
C 2752 1667 2400 2092 1920 2252 
C 2304 2463 2586 2860 2586 3321 
C 2586 3859 2093 4288 1491 4288 
C 941 4288 512 3948 333 3583 
C 378 3519 493 3334 550 3238 
C 691 3615 1056 3897 1485 3897 
C 1843 3897 2080 3660 2080 3321 
C 2080 2969 1856 2585 1478 2496 
C 1453 2496 1056 2457 1005 2451 
L 1005 2060 
z
" transform="scale(0.015625)"/>
      <path id="CMSS17-2d" d="M 1664 1216 
L 1664 1587 
L 64 1587 
L 64 1216 
L 1664 1216 
z
" transform="scale(0.015625)"/>
      <path id="CMSS17-2e" d="M 1088 512 
L 576 512 
L 576 0 
L 1088 0 
L 1088 512 
z
" transform="scale(0.015625)"/>
      <path id="CMSS17-62" d="M 954 4416 
L 480 4416 
L 480 -13 
L 966 -13 
L 966 275 
C 1210 38 1504 -64 1766 -64 
C 2381 -64 2880 559 2880 1382 
C 2880 2133 2496 2816 1926 2816 
C 1523 2816 1165 2649 954 2476 
L 954 4416 
z
M 966 2095 
C 1107 2276 1306 2425 1587 2425 
C 1965 2425 2394 2146 2394 1382 
C 2394 566 1882 326 1530 326 
C 1402 326 1267 358 1139 468 
C 966 624 966 721 966 812 
L 966 2095 
z
" transform="scale(0.015625)"/>
     </defs>
     <use xlink:href="#CMSS17-72" transform="scale(0.996264)"/>
     <use xlink:href="#CMSS17-64" transform="translate(31.909773 0) scale(0.996264)"/>
     <use xlink:href="#CMSS17-31" transform="translate(80.114716 0) scale(0.996264)"/>
     <use xlink:href="#CMSS17-39" transform="translate(126.958339 0) scale(0.996264)"/>
     <use xlink:href="#CMSS17-30" transform="translate(173.801963 0) scale(0.996264)"/>
     <use xlink:href="#CMSS17-33" transform="translate(220.645586 0) scale(0.996264)"/>
     <use xlink:href="#CMSS17-66" transform="translate(301.216705 0) scale(0.996264)"/>
     <use xlink:href="#CMSS17-74" transform="translate(329.843364 0) scale(0.996264)"/>
     <use xlink:href="#CMSS17-31" transform="translate(397.402426 0) scale(0.996264)"/>
     <use xlink:href="#CMSS17-30" transform="translate(444.246049 0) scale(0.996264)"/>
     <use xlink:href="#CMSS17-30" transform="translate(491.089673 0) scale(0.996264)"/>
     <use xlink:href="#CMSS17-2d" transform="translate(537.933296 0) scale(0.996264)"/>
     <use xlink:href="#CMSS17-30" transform="translate(569.162409 0) scale(0.996264)"/>
     <use xlink:href="#CMSS17-39" transform="translate(616.006033 0) scale(0.996264)"/>
     <use xlink:href="#CMSS17-35" transform="translate(662.849656 0) scale(0.996264)"/>
     <use xlink:href="#CMSS17-30" transform="translate(709.69328 0) scale(0.996264)"/>
     <use xlink:href="#CMSS17-2e" transform="translate(756.536903 0) scale(0.996264)"/>
     <use xlink:href="#CMSS17-6d" transform="translate(782.561108 0) scale(0.996264)"/>
     <use xlink:href="#CMSS17-35" transform="translate(856.790363 0) scale(0.996264)"/>
     <use xlink:href="#CMSS17-62" transform="translate(903.633986 0) scale(0.996264)"/>
     <path d="M 273.110221 0 
L 301.216705 0 
L 301.216705 0.3985 
L 273.110221 0.3985 
L 273.110221 0 
z
"/>
     <path d="M 369.295942 0 
L 397.402426 0 
L 397.402426 0.3985 
L 369.295942 0.3985 
L 369.295942 0 
z
"/>
    </g>
   </g>
   <g id="text_16">
    <!-- Quantization Threshold Estimates -->
    <g transform="translate(125.461556 35.472) scale(0.16 -0.16)">
     <defs>
      <path id="CMSS17-51" d="M 3200 211 
C 3981 848 4096 1711 4096 2201 
C 4096 3541 3219 4544 2214 4544 
C 1210 4544 333 3535 333 2201 
C 333 855 1222 -128 2214 -128 
C 2438 -128 2630 -77 2765 -26 
L 3302 -832 
L 3930 -832 
L 3200 211 
z
M 2528 326 
C 2438 294 2330 275 2214 275 
C 1523 275 858 1003 858 2201 
C 858 3393 1517 4140 2214 4140 
C 2918 4140 3571 3386 3571 2201 
C 3571 1789 3507 1099 2950 571 
L 2490 1222 
L 1939 1222 
L 2528 326 
z
" transform="scale(0.015625)"/>
      <path id="CMSS17-54" d="M 2317 3987 
L 2848 3987 
C 2925 3987 3002 3980 3078 3980 
L 3878 3980 
L 3878 4396 
L 218 4396 
L 218 3980 
L 1018 3980 
C 1094 3980 1171 3987 1248 3987 
L 1779 3987 
L 1779 0 
L 2317 0 
L 2317 3987 
z
" transform="scale(0.015625)"/>
      <path id="CMSS17-45" d="M 1958 435 
C 1446 435 1216 435 1101 428 
L 1101 2105 
L 3085 2105 
L 3085 2496 
L 1101 2496 
L 1101 3993 
L 1926 3993 
C 2003 3993 2080 3987 2157 3987 
L 3251 3987 
L 3251 4403 
L 563 4403 
L 563 0 
L 3334 0 
L 3334 441 
L 1958 435 
z
" transform="scale(0.015625)"/>
     </defs>
     <use xlink:href="#CMSS17-51" transform="scale(0.996264)"/>
     <use xlink:href="#CMSS17-75" transform="translate(69.024255 0) scale(0.996264)"/>
     <use xlink:href="#CMSS17-61" transform="translate(117.229198 0) scale(0.996264)"/>
     <use xlink:href="#CMSS17-6e" transform="translate(162.151119 0) scale(0.996264)"/>
     <use xlink:href="#CMSS17-74" transform="translate(210.356062 0) scale(0.996264)"/>
     <use xlink:href="#CMSS17-69" transform="translate(244.187629 0) scale(0.996264)"/>
     <use xlink:href="#CMSS17-7a" transform="translate(266.368352 0) scale(0.996264)"/>
     <use xlink:href="#CMSS17-61" transform="translate(307.046224 0) scale(0.996264)"/>
     <use xlink:href="#CMSS17-74" transform="translate(351.968144 0) scale(0.996264)"/>
     <use xlink:href="#CMSS17-69" transform="translate(385.799711 0) scale(0.996264)"/>
     <use xlink:href="#CMSS17-6f" transform="translate(407.980434 0) scale(0.996264)"/>
     <use xlink:href="#CMSS17-6e" transform="translate(454.824058 0) scale(0.996264)"/>
     <use xlink:href="#CMSS17-54" transform="translate(534.258113 0) scale(0.996264)"/>
     <use xlink:href="#CMSS17-68" transform="translate(598.077567 0) scale(0.996264)"/>
     <use xlink:href="#CMSS17-72" transform="translate(646.282511 0) scale(0.996264)"/>
     <use xlink:href="#CMSS17-65" transform="translate(678.192283 0) scale(0.996264)"/>
     <use xlink:href="#CMSS17-73" transform="translate(719.831105 0) scale(0.996264)"/>
     <use xlink:href="#CMSS17-68" transform="translate(755.744647 0) scale(0.996264)"/>
     <use xlink:href="#CMSS17-6f" transform="translate(803.94959 0) scale(0.996264)"/>
     <use xlink:href="#CMSS17-6c" transform="translate(850.793214 0) scale(0.996264)"/>
     <use xlink:href="#CMSS17-64" transform="translate(872.973937 0) scale(0.996264)"/>
     <use xlink:href="#CMSS17-45" transform="translate(952.407993 0) scale(0.996264)"/>
     <use xlink:href="#CMSS17-73" transform="translate(1008.300006 0) scale(0.996264)"/>
     <use xlink:href="#CMSS17-74" transform="translate(1044.213548 0) scale(0.996264)"/>
     <use xlink:href="#CMSS17-69" transform="translate(1078.045115 0) scale(0.996264)"/>
     <use xlink:href="#CMSS17-6d" transform="translate(1100.225838 0) scale(0.996264)"/>
     <use xlink:href="#CMSS17-61" transform="translate(1174.455092 0) scale(0.996264)"/>
     <use xlink:href="#CMSS17-74" transform="translate(1219.377013 0) scale(0.996264)"/>
     <use xlink:href="#CMSS17-65" transform="translate(1253.208579 0) scale(0.996264)"/>
     <use xlink:href="#CMSS17-73" transform="translate(1294.847401 0) scale(0.996264)"/>
    </g>
   </g>
  </g>
 </g>
 <defs>
  <clipPath id="p5cdffe97ed">
   <rect x="57.6" y="41.472" width="357.12" height="266.112"/>
  </clipPath>
 </defs>
</svg>
