<?xml version="1.0" encoding="UTF-8" standalone="no"?>
<!-- Created with Inkscape (http://www.inkscape.org/) -->

<svg
   width="210mm"
   height="297mm"
   viewBox="0 0 210 297"
   version="1.1"
   id="svg5"
   xml:space="preserve"
   inkscape:version="1.2.2 (1:1.2.2+202305151914+b0a8486541)"
   sodipodi:docname="npdf_areas.svg"
   xmlns:inkscape="http://www.inkscape.org/namespaces/inkscape"
   xmlns:sodipodi="http://sodipodi.sourceforge.net/DTD/sodipodi-0.dtd"
   xmlns="http://www.w3.org/2000/svg"
   xmlns:svg="http://www.w3.org/2000/svg"><sodipodi:namedview
     id="namedview7"
     pagecolor="#ffffff"
     bordercolor="#666666"
     borderopacity="1.0"
     inkscape:showpageshadow="2"
     inkscape:pageopacity="0.0"
     inkscape:pagecheckerboard="0"
     inkscape:deskcolor="#d1d1d1"
     inkscape:document-units="mm"
     showgrid="false"
     inkscape:zoom="1.8721465"
     inkscape:cx="388.05723"
     inkscape:cy="477.79379"
     inkscape:window-width="1920"
     inkscape:window-height="1018"
     inkscape:window-x="1920"
     inkscape:window-y="0"
     inkscape:window-maximized="1"
     inkscape:current-layer="layer1" /><defs
     id="defs2"><clipPath
       clipPathUnits="userSpaceOnUse"
       id="clipPath164"><path
         d="M 0,0 H 4608 V 3452.4 H 0 Z"
         id="path162" /></clipPath><clipPath
       clipPathUnits="userSpaceOnUse"
       id="clipPath176"><path
         d="m 576,376.559 h 3571.2 v 2661.12 H 576 Z"
         id="path174" /></clipPath><clipPath
       clipPathUnits="userSpaceOnUse"
       id="clipPath200"><path
         d="M 0,0 H 4608 V 3452.4 H 0 Z"
         id="path198" /></clipPath><clipPath
       clipPathUnits="userSpaceOnUse"
       id="clipPath220"><path
         d="m 576,376.559 h 3571.2 v 2661.12 H 576 Z"
         id="path218" /></clipPath><clipPath
       clipPathUnits="userSpaceOnUse"
       id="clipPath238"><path
         d="M 0,0 H 4608 V 3452.4 H 0 Z"
         id="path236" /></clipPath><clipPath
       clipPathUnits="userSpaceOnUse"
       id="clipPath254"><path
         d=""
         id="path252" /></clipPath></defs><g
     inkscape:label="Layer 1"
     inkscape:groupmode="layer"
     id="layer1"><g
       id="g158"
       transform="matrix(0.02654691,0,0,-0.02983669,39.022269,135.94097)"
       style="stroke-width:1.25349"><g
         id="g160"
         clip-path="url(#clipPath164)"
         style="stroke-width:1.25349"><path
           d="M 0,-3.60156 H 4608 V 3452.3984 H 0 Z"
           style="fill:#ffffff;fill-opacity:1;fill-rule:nonzero;stroke:none;stroke-width:1.25349"
           id="path166" /><path
           d="m 576,376.559 h 3571.2 v 2661.12 H 576 Z"
           style="fill:#ffffff;fill-opacity:1;fill-rule:nonzero;stroke:none;stroke-width:1.25349"
           id="path168" /></g></g><g
       id="g170"
       transform="matrix(0.03527778,0,0,-0.03527778,16.730064,140.03591)"><g
         id="g172"
         clip-path="url(#clipPath176)"><path
           d="m 738.328,497.52 v 26.347 l 6.492,0.965 6.493,0.996 6.492,1.027 6.496,1.059 6.492,1.094 6.492,1.129 6.492,1.164 6.496,1.199 6.493,1.238 6.492,1.278 6.492,1.316 6.496,1.356 6.492,1.394 6.492,1.441 6.493,1.485 6.492,1.527 6.496,1.574 6.492,1.618 6.492,1.668 6.493,1.718 6.496,1.766 6.492,1.82 6.492,1.871 6.492,1.926 6.492,1.977 6.496,2.039 6.493,2.09 6.492,2.152 6.492,2.211 6.496,2.273 6.492,2.336 6.492,2.399 6.497,2.465 6.488,2.531 6.496,2.597 6.492,2.668 6.492,2.739 6.496,2.808 6.493,2.887 6.492,2.957 6.489,3.035 6.5,3.113 6.49,3.196 6.49,3.269 6.5,3.356 6.49,3.441 6.49,3.524 6.5,3.613 6.49,3.699 6.49,3.789 6.5,3.879 6.49,3.973 6.49,4.066 6.49,4.164 6.5,4.262 6.49,4.359 6.49,4.461 6.5,4.563 6.49,4.664 6.49,4.769 6.5,4.875 6.49,4.989 6.49,5.093 6.5,5.207 6.49,5.317 6.49,5.433 6.49,5.551 6.5,5.664 6.49,5.785 6.49,5.903 6.5,6.027 6.49,6.149 6.49,6.273 6.5,6.398 6.49,6.524 6.49,6.656 6.49,6.781 6.5,6.914 6.49,7.047 6.5,7.18 6.49,7.316 6.5,7.453 6.49,7.59 6.49,7.727 6.49,7.863 6.49,8.008 6.49,8.148 6.49,8.289 6.5,8.434 6.49,8.578 6.5,8.727 6.5,8.867 6.49,9.019 6.49,9.165 6.49,9.312 6.49,9.461 6.5,9.609 6.49,9.762 6.49,9.91 6.49,10.067 6.5,10.214 6.5,10.364 6.49,10.519 6.49,10.672 6.5,10.82 6.49,10.97 6.49,11.13 6.49,11.28 6.49,11.43 6.49,11.59 6.49,11.73 6.5,11.89 6.5,12.04 6.49,12.19 6.5,12.33 6.49,12.49 6.49,12.64 6.49,12.78 6.49,12.93 6.5,13.08 6.49,13.22 6.49,13.37 6.49,13.51 6.51,13.64 6.49,13.8 6.49,13.93 6.49,14.07 6.5,14.19 6.49,14.34 6.49,14.47 6.49,14.6 6.49,14.72 6.49,14.85 6.49,14.97 6.51,15.1 6.49,15.22 6.49,15.33 6.5,15.45 6.49,15.56 6.49,15.66 6.49,15.78 6.49,15.88 6.5,15.97 6.49,16.08 6.49,16.16 6.5,16.26 6.5,16.35 6.49,16.42 6.49,16.51 6.49,16.59 v -1154.46 0 h -6.49 -6.49 -6.49 -6.5 -6.5 -6.49 -6.49 -6.5 -6.49 -6.49 -6.49 -6.49 -6.5 -6.49 -6.49 -6.51 -6.49 -6.49 -6.49 -6.49 -6.49 -6.49 -6.5 -6.49 -6.49 -6.49 -6.51 -6.49 -6.49 -6.49 -6.5 -6.49 -6.49 -6.49 -6.49 -6.5 -6.49 -6.5 -6.5 -6.49 -6.49 -6.49 -6.49 -6.49 -6.49 -6.5 -6.49 -6.49 -6.5 -6.5 -6.49 -6.49 -6.49 -6.5 -6.49 -6.49 -6.49 -6.49 -6.5 -6.5 -6.49 -6.5 -6.49 -6.49 -6.49 -6.49 -6.49 -6.49 -6.5 -6.49 -6.5 -6.49 -6.5 -6.49 -6.49 -6.49 -6.5 -6.49 -6.49 -6.5 -6.49 -6.49 -6.5 -6.49 -6.49 -6.49 -6.5 -6.49 -6.49 -6.5 -6.49 -6.49 -6.5 -6.49 -6.49 -6.5 -6.49 -6.49 -6.49 -6.5 -6.49 -6.49 -6.5 -6.49 -6.49 -6.5 -6.49 -6.49 -6.5 -6.489 -6.492 -6.493 -6.496 -6.492 -6.492 -6.496 -6.488 -6.497 -6.492 -6.492 -6.496 -6.492 -6.492 -6.493 -6.496 -6.492 -6.492 -6.492 -6.492 -6.496 -6.493 -6.492 -6.492 -6.496 -6.492 -6.493 -6.492 -6.492 -6.496 -6.492 -6.492 -6.493 -6.496 -6.492 -6.492 -6.492 -6.496 -6.492 -6.493 -6.492"
           style="fill:#0000ff;fill-opacity:1;fill-rule:nonzero;stroke:none"
           id="path178" /><path
           d="m 738.328,497.52 v 26.347 l 6.492,0.965 6.493,0.996 6.492,1.027 6.496,1.059 6.492,1.094 6.492,1.129 6.492,1.164 6.496,1.199 6.493,1.238 6.492,1.278 6.492,1.316 6.496,1.356 6.492,1.394 6.492,1.441 6.493,1.485 6.492,1.527 6.496,1.574 6.492,1.618 6.492,1.668 6.493,1.718 6.496,1.766 6.492,1.82 6.492,1.871 6.492,1.926 6.492,1.977 6.496,2.039 6.493,2.09 6.492,2.152 6.492,2.211 6.496,2.273 6.492,2.336 6.492,2.399 6.497,2.465 6.488,2.531 6.496,2.597 6.492,2.668 6.492,2.739 6.496,2.808 6.493,2.887 6.492,2.957 6.489,3.035 6.5,3.113 6.49,3.196 6.49,3.269 6.5,3.356 6.49,3.441 6.49,3.524 6.5,3.613 6.49,3.699 6.49,3.789 6.5,3.879 6.49,3.973 6.49,4.066 6.49,4.164 6.5,4.262 6.49,4.359 6.49,4.461 6.5,4.563 6.49,4.664 6.49,4.769 6.5,4.875 6.49,4.989 6.49,5.093 6.5,5.207 6.49,5.317 6.49,5.433 6.49,5.551 6.5,5.664 6.49,5.785 6.49,5.903 6.5,6.027 6.49,6.149 6.49,6.273 6.5,6.398 6.49,6.524 6.49,6.656 6.49,6.781 6.5,6.914 6.49,7.047 6.5,7.18 6.49,7.316 6.5,7.453 6.49,7.59 6.49,7.727 6.49,7.863 6.49,8.008 6.49,8.148 6.49,8.289 6.5,8.434 6.49,8.578 6.5,8.727 6.5,8.867 6.49,9.019 6.49,9.165 6.49,9.312 6.49,9.461 6.5,9.609 6.49,9.762 6.49,9.91 6.49,10.067 6.5,10.214 6.5,10.364 6.49,10.519 6.49,10.672 6.5,10.82 6.49,10.97 6.49,11.13 6.49,11.28 6.49,11.43 6.49,11.59 6.49,11.73 6.5,11.89 6.5,12.04 6.49,12.19 6.5,12.33 6.49,12.49 6.49,12.64 6.49,12.78 6.49,12.93 6.5,13.08 6.49,13.22 6.49,13.37 6.49,13.51 6.51,13.64 6.49,13.8 6.49,13.93 6.49,14.07 6.5,14.19 6.49,14.34 6.49,14.47 6.49,14.6 6.49,14.72 6.49,14.85 6.49,14.97 6.51,15.1 6.49,15.22 6.49,15.33 6.5,15.45 6.49,15.56 6.49,15.66 6.49,15.78 6.49,15.88 6.5,15.97 6.49,16.08 6.49,16.16 6.5,16.26 6.5,16.35 6.49,16.42 6.49,16.51 6.49,16.59 v -1154.46 0 h -6.49 -6.49 -6.49 -6.5 -6.5 -6.49 -6.49 -6.5 -6.49 -6.49 -6.49 -6.49 -6.5 -6.49 -6.49 -6.51 -6.49 -6.49 -6.49 -6.49 -6.49 -6.49 -6.5 -6.49 -6.49 -6.49 -6.51 -6.49 -6.49 -6.49 -6.5 -6.49 -6.49 -6.49 -6.49 -6.5 -6.49 -6.5 -6.5 -6.49 -6.49 -6.49 -6.49 -6.49 -6.49 -6.5 -6.49 -6.49 -6.5 -6.5 -6.49 -6.49 -6.49 -6.5 -6.49 -6.49 -6.49 -6.49 -6.5 -6.5 -6.49 -6.5 -6.49 -6.49 -6.49 -6.49 -6.49 -6.49 -6.5 -6.49 -6.5 -6.49 -6.5 -6.49 -6.49 -6.49 -6.5 -6.49 -6.49 -6.5 -6.49 -6.49 -6.5 -6.49 -6.49 -6.49 -6.5 -6.49 -6.49 -6.5 -6.49 -6.49 -6.5 -6.49 -6.49 -6.5 -6.49 -6.49 -6.49 -6.5 -6.49 -6.49 -6.5 -6.49 -6.49 -6.5 -6.49 -6.49 -6.5 -6.489 -6.492 -6.493 -6.496 -6.492 -6.492 -6.496 -6.488 -6.497 -6.492 -6.492 -6.496 -6.492 -6.492 -6.493 -6.496 -6.492 -6.492 -6.492 -6.492 -6.496 -6.493 -6.492 -6.492 -6.496 -6.492 -6.493 -6.492 -6.492 -6.496 -6.492 -6.492 -6.493 -6.496 -6.492 -6.492 -6.492 -6.496 -6.492 -6.493 z"
           style="fill:none;stroke:#0000ff;stroke-width:10;stroke-linecap:butt;stroke-linejoin:round;stroke-miterlimit:10;stroke-dasharray:none;stroke-opacity:1"
           id="path180" /><path
           d="m 1718.79,497.52 v 1171.12 l 6.49,16.74 6.49,16.78 6.49,16.86 6.49,16.91 6.5,16.97 6.5,17.02 6.49,17.06 6.49,17.11 6.49,17.14 6.49,17.17 6.5,17.2 6.49,17.22 6.49,17.23 6.49,17.25 6.5,17.26 6.49,17.27 6.5,17.26 6.49,17.25 6.5,17.25 6.49,17.21 6.49,17.21 6.49,17.17 6.5,17.15 6.49,17.1 6.49,17.07 6.49,17.01 6.49,16.96 6.51,16.89 6.49,16.84 6.49,16.76 6.49,16.7 6.49,16.61 6.49,16.51 6.5,16.42 6.49,16.32 6.49,16.23 6.49,16.11 6.5,16 6.5,15.87 6.49,15.75 6.49,15.63 6.5,15.48 6.49,15.32 6.49,15.19 6.49,15.03 6.49,14.86 6.5,14.71 6.49,14.53 6.49,14.36 6.51,14.17 6.49,13.98 6.49,13.79 6.49,13.6 6.49,13.37 6.49,13.19 6.49,12.96 6.5,12.74 6.49,12.52 6.49,12.3 6.49,12.05 6.51,11.82 6.49,11.58 6.49,11.33 6.49,11.06 6.5,10.83 6.49,10.55 6.49,10.28 6.49,10.02 6.49,9.74 6.5,9.46 6.49,9.18 6.5,8.9 6.5,8.61 6.49,8.3 6.49,8.02 6.49,7.71 6.49,7.4 6.49,7.11 6.49,6.79 6.5,6.48 6.49,6.17 6.49,5.85 6.5,5.51 6.5,5.21 6.49,4.87 6.49,4.57 6.49,4.21 6.5,3.89 6.49,3.56 6.49,3.23 6.49,2.88 6.49,2.55 6.5,2.21 6.5,1.88 6.49,1.53 6.5,1.2 6.49,0.85 6.49,0.52 6.49,0.17 v -2371.77 0 h -6.49 -6.49 -6.49 -6.5 -6.49 -6.5 -6.5 -6.49 -6.49 -6.49 -6.49 -6.5 -6.49 -6.49 -6.49 -6.5 -6.5 -6.49 -6.49 -6.5 -6.49 -6.49 -6.49 -6.49 -6.49 -6.49 -6.5 -6.5 -6.49 -6.5 -6.49 -6.49 -6.49 -6.49 -6.5 -6.49 -6.49 -6.49 -6.51 -6.49 -6.49 -6.49 -6.5 -6.49 -6.49 -6.49 -6.49 -6.49 -6.49 -6.51 -6.49 -6.49 -6.5 -6.49 -6.49 -6.49 -6.49 -6.5 -6.49 -6.49 -6.5 -6.5 -6.49 -6.49 -6.49 -6.5 -6.49 -6.49 -6.49 -6.49 -6.49 -6.51 -6.49 -6.49 -6.49 -6.49 -6.5 -6.49 -6.49 -6.49 -6.5 -6.49 -6.5 -6.49 -6.5 -6.49 -6.49 -6.49 -6.5 -6.49 -6.49 -6.49 -6.49 -6.5 -6.5 -6.49 -6.49 -6.49 -6.49"
           style="fill:#bf00bf;fill-opacity:1;fill-rule:nonzero;stroke:none"
           id="path182" /><path
           d="m 1718.79,497.52 v 1171.12 l 6.49,16.74 6.49,16.78 6.49,16.86 6.49,16.91 6.5,16.97 6.5,17.02 6.49,17.06 6.49,17.11 6.49,17.14 6.49,17.17 6.5,17.2 6.49,17.22 6.49,17.23 6.49,17.25 6.5,17.26 6.49,17.27 6.5,17.26 6.49,17.25 6.5,17.25 6.49,17.21 6.49,17.21 6.49,17.17 6.5,17.15 6.49,17.1 6.49,17.07 6.49,17.01 6.49,16.96 6.51,16.89 6.49,16.84 6.49,16.76 6.49,16.7 6.49,16.61 6.49,16.51 6.5,16.42 6.49,16.32 6.49,16.23 6.49,16.11 6.5,16 6.5,15.87 6.49,15.75 6.49,15.63 6.5,15.48 6.49,15.32 6.49,15.19 6.49,15.03 6.49,14.86 6.5,14.71 6.49,14.53 6.49,14.36 6.51,14.17 6.49,13.98 6.49,13.79 6.49,13.6 6.49,13.37 6.49,13.19 6.49,12.96 6.5,12.74 6.49,12.52 6.49,12.3 6.49,12.05 6.51,11.82 6.49,11.58 6.49,11.33 6.49,11.06 6.5,10.83 6.49,10.55 6.49,10.28 6.49,10.02 6.49,9.74 6.5,9.46 6.49,9.18 6.5,8.9 6.5,8.61 6.49,8.3 6.49,8.02 6.49,7.71 6.49,7.4 6.49,7.11 6.49,6.79 6.5,6.48 6.49,6.17 6.49,5.85 6.5,5.51 6.5,5.21 6.49,4.87 6.49,4.57 6.49,4.21 6.5,3.89 6.49,3.56 6.49,3.23 6.49,2.88 6.49,2.55 6.5,2.21 6.5,1.88 6.49,1.53 6.5,1.2 6.49,0.85 6.49,0.52 6.49,0.17 v -2371.77 0 h -6.49 -6.49 -6.49 -6.5 -6.49 -6.5 -6.5 -6.49 -6.49 -6.49 -6.49 -6.5 -6.49 -6.49 -6.49 -6.5 -6.5 -6.49 -6.49 -6.5 -6.49 -6.49 -6.49 -6.49 -6.49 -6.49 -6.5 -6.5 -6.49 -6.5 -6.49 -6.49 -6.49 -6.49 -6.5 -6.49 -6.49 -6.49 -6.51 -6.49 -6.49 -6.49 -6.5 -6.49 -6.49 -6.49 -6.49 -6.49 -6.49 -6.51 -6.49 -6.49 -6.5 -6.49 -6.49 -6.49 -6.49 -6.5 -6.49 -6.49 -6.5 -6.5 -6.49 -6.49 -6.49 -6.5 -6.49 -6.49 -6.49 -6.49 -6.49 -6.51 -6.49 -6.49 -6.49 -6.49 -6.5 -6.49 -6.49 -6.49 -6.5 -6.49 -6.5 -6.49 -6.5 -6.49 -6.49 -6.49 -6.5 -6.49 -6.49 -6.49 -6.49 -6.5 -6.5 -6.49 -6.49 -6.49 z"
           style="fill:none;stroke:#bf00bf;stroke-width:10;stroke-linecap:butt;stroke-linejoin:round;stroke-miterlimit:10;stroke-dasharray:none;stroke-opacity:1"
           id="path184" /><path
           d="m 2368.09,497.52 v 2371.6 l 6.5,-0.52 6.49,-0.85 6.49,-1.2 6.49,-1.53 6.5,-1.88 6.49,-2.21 6.5,-2.55 6.49,-2.88 6.49,-3.23 6.49,-3.56 6.5,-3.89 6.49,-4.21 6.49,-4.57 6.49,-4.87 6.49,-5.21 6.51,-5.51 6.49,-5.85 6.49,-6.17 6.49,-6.48 6.5,-6.79 6.49,-7.11 6.49,-7.4 6.49,-7.71 6.5,-8.02 6.49,-8.3 6.49,-8.61 6.5,-8.9 6.49,-9.18 6.49,-9.46 6.5,-9.74 6.49,-10.02 6.49,-10.28 6.49,-10.55 6.5,-10.83 6.49,-11.06 6.49,-11.33 6.49,-11.58 6.51,-11.82 6.49,-12.05 6.49,-12.3 6.49,-12.52 6.49,-12.74 6.5,-12.96 6.49,-13.19 6.49,-13.37 6.49,-13.6 6.5,-13.79 6.49,-13.98 6.5,-14.17 6.49,-14.36 6.49,-14.53 6.49,-14.71 6.5,-14.86 6.49,-15.03 6.49,-15.19 6.49,-15.32 6.5,-15.48 6.49,-15.63 6.49,-15.75 6.5,-15.87 6.5,-16 6.49,-16.11 6.49,-16.23 6.49,-16.32 6.49,-16.42 6.5,-16.51 6.49,-16.61 6.49,-16.7 6.49,-16.76 6.5,-16.84 6.5,-16.89 6.49,-16.96 6.49,-17.01 6.5,-17.07 6.49,-17.1 6.49,-17.15 6.49,-17.17 6.49,-17.21 6.49,-17.21 6.5,-17.25 6.49,-17.25 6.5,-17.26 6.49,-17.27 6.5,-17.26 6.49,-17.25 6.49,-17.23 6.49,-17.22 6.49,-17.2 6.5,-17.17 6.49,-17.14 6.49,-17.11 6.49,-17.06 6.51,-17.02 6.49,-16.97 6.49,-16.91 6.49,-16.86 6.5,-16.78 6.49,-16.74 v -1171.12 0 h -6.49 -6.5 -6.49 -6.49 -6.49 -6.51 -6.49 -6.49 -6.49 -6.5 -6.49 -6.49 -6.49 -6.49 -6.5 -6.49 -6.5 -6.49 -6.5 -6.49 -6.49 -6.49 -6.49 -6.49 -6.5 -6.49 -6.49 -6.5 -6.5 -6.49 -6.49 -6.49 -6.5 -6.49 -6.49 -6.49 -6.49 -6.5 -6.5 -6.49 -6.49 -6.5 -6.49 -6.49 -6.49 -6.5 -6.49 -6.49 -6.49 -6.5 -6.49 -6.5 -6.49 -6.49 -6.49 -6.5 -6.49 -6.49 -6.49 -6.49 -6.51 -6.49 -6.49 -6.49 -6.5 -6.49 -6.49 -6.49 -6.5 -6.49 -6.49 -6.5 -6.49 -6.49 -6.5 -6.49 -6.49 -6.49 -6.5 -6.49 -6.49 -6.49 -6.51 -6.49 -6.49 -6.49 -6.49 -6.5 -6.49 -6.49 -6.49 -6.5 -6.49 -6.5 -6.49 -6.49 -6.49 -6.5"
           style="fill:#008000;fill-opacity:1;fill-rule:nonzero;stroke:none"
           id="path186" /><path
           d="m 2368.09,497.52 v 2371.6 l 6.5,-0.52 6.49,-0.85 6.49,-1.2 6.49,-1.53 6.5,-1.88 6.49,-2.21 6.5,-2.55 6.49,-2.88 6.49,-3.23 6.49,-3.56 6.5,-3.89 6.49,-4.21 6.49,-4.57 6.49,-4.87 6.49,-5.21 6.51,-5.51 6.49,-5.85 6.49,-6.17 6.49,-6.48 6.5,-6.79 6.49,-7.11 6.49,-7.4 6.49,-7.71 6.5,-8.02 6.49,-8.3 6.49,-8.61 6.5,-8.9 6.49,-9.18 6.49,-9.46 6.5,-9.74 6.49,-10.02 6.49,-10.28 6.49,-10.55 6.5,-10.83 6.49,-11.06 6.49,-11.33 6.49,-11.58 6.51,-11.82 6.49,-12.05 6.49,-12.3 6.49,-12.52 6.49,-12.74 6.5,-12.96 6.49,-13.19 6.49,-13.37 6.49,-13.6 6.5,-13.79 6.49,-13.98 6.5,-14.17 6.49,-14.36 6.49,-14.53 6.49,-14.71 6.5,-14.86 6.49,-15.03 6.49,-15.19 6.49,-15.32 6.5,-15.48 6.49,-15.63 6.49,-15.75 6.5,-15.87 6.5,-16 6.49,-16.11 6.49,-16.23 6.49,-16.32 6.49,-16.42 6.5,-16.51 6.49,-16.61 6.49,-16.7 6.49,-16.76 6.5,-16.84 6.5,-16.89 6.49,-16.96 6.49,-17.01 6.5,-17.07 6.49,-17.1 6.49,-17.15 6.49,-17.17 6.49,-17.21 6.49,-17.21 6.5,-17.25 6.49,-17.25 6.5,-17.26 6.49,-17.27 6.5,-17.26 6.49,-17.25 6.49,-17.23 6.49,-17.22 6.49,-17.2 6.5,-17.17 6.49,-17.14 6.49,-17.11 6.49,-17.06 6.51,-17.02 6.49,-16.97 6.49,-16.91 6.49,-16.86 6.5,-16.78 6.49,-16.74 v -1171.12 0 h -6.49 -6.5 -6.49 -6.49 -6.49 -6.51 -6.49 -6.49 -6.49 -6.5 -6.49 -6.49 -6.49 -6.49 -6.5 -6.49 -6.5 -6.49 -6.5 -6.49 -6.49 -6.49 -6.49 -6.49 -6.5 -6.49 -6.49 -6.5 -6.5 -6.49 -6.49 -6.49 -6.5 -6.49 -6.49 -6.49 -6.49 -6.5 -6.5 -6.49 -6.49 -6.5 -6.49 -6.49 -6.49 -6.5 -6.49 -6.49 -6.49 -6.5 -6.49 -6.5 -6.49 -6.49 -6.49 -6.5 -6.49 -6.49 -6.49 -6.49 -6.51 -6.49 -6.49 -6.49 -6.5 -6.49 -6.49 -6.49 -6.5 -6.49 -6.49 -6.5 -6.49 -6.49 -6.5 -6.49 -6.49 -6.49 -6.5 -6.49 -6.49 -6.49 -6.51 -6.49 -6.49 -6.49 -6.49 -6.5 -6.49 -6.49 -6.49 -6.5 -6.49 -6.5 -6.49 -6.49 -6.49 z"
           style="fill:none;stroke:#008000;stroke-width:10;stroke-linecap:butt;stroke-linejoin:round;stroke-miterlimit:10;stroke-dasharray:none;stroke-opacity:1"
           id="path188" /><path
           d="m 3010.91,497.52 v 1154.46 l 6.49,-16.59 6.49,-16.51 6.49,-16.42 6.5,-16.35 6.5,-16.26 6.49,-16.16 6.49,-16.08 6.5,-15.97 6.49,-15.88 6.49,-15.78 6.49,-15.66 6.49,-15.56 6.5,-15.45 6.49,-15.33 6.49,-15.22 6.5,-15.1 6.5,-14.97 6.49,-14.85 6.49,-14.72 6.49,-14.6 6.5,-14.47 6.49,-14.34 6.49,-14.19 6.49,-14.07 6.49,-13.93 6.49,-13.8 6.51,-13.64 6.49,-13.51 6.49,-13.37 6.49,-13.22 6.5,-13.08 6.49,-12.93 6.49,-12.78 6.49,-12.64 6.49,-12.49 6.5,-12.33 6.49,-12.19 6.5,-12.04 6.49,-11.89 6.5,-11.73 6.49,-11.59 6.49,-11.43 6.49,-11.28 6.5,-11.13 6.49,-10.97 6.49,-10.82 6.49,-10.672 6.49,-10.519 6.51,-10.364 6.49,-10.214 6.49,-10.067 6.49,-9.91 6.49,-9.762 6.5,-9.609 6.49,-9.461 6.49,-9.312 6.49,-9.165 6.49,-9.019 6.5,-8.867 6.5,-8.727 6.49,-8.578 6.49,-8.434 6.5,-8.289 6.49,-8.148 6.49,-8.008 6.49,-7.863 6.5,-7.727 6.49,-7.59 6.49,-7.453 6.49,-7.316 6.51,-7.18 6.49,-7.047 6.49,-6.914 6.49,-6.781 6.49,-6.656 6.49,-6.524 6.5,-6.398 6.49,-6.273 6.49,-6.149 6.49,-6.027 6.49,-5.903 6.51,-5.785 6.49,-5.664 6.49,-5.551 6.49,-5.433 6.5,-5.317 6.49,-5.207 6.49,-5.093 6.49,-4.989 6.5,-4.875 6.49,-4.769 6.49,-4.664 6.5,-4.563 6.5,-4.461 6.49,-4.359 6.49,-4.262 6.49,-4.164 6.49,-4.066 6.49,-3.973 6.49,-3.879 6.5,-3.789 6.49,-3.699 6.49,-3.613 6.51,-3.524 6.49,-3.441 6.49,-3.356 6.49,-3.269 6.49,-3.196 6.5,-3.113 6.49,-3.035 6.49,-2.957 6.49,-2.887 6.5,-2.808 6.49,-2.739 6.5,-2.668 6.49,-2.597 6.5,-2.531 6.49,-2.465 6.49,-2.399 6.49,-2.336 6.49,-2.273 6.49,-2.211 6.49,-2.152 6.5,-2.09 6.49,-2.039 6.5,-1.977 6.5,-1.926 6.49,-1.871 6.49,-1.82 6.49,-1.766 6.49,-1.718 6.5,-1.668 6.49,-1.618 6.49,-1.574 6.49,-1.527 6.49,-1.485 6.51,-1.441 6.49,-1.394 6.49,-1.356 6.5,-1.316 6.49,-1.278 6.49,-1.238 6.49,-1.199 6.49,-1.164 6.49,-1.129 6.49,-1.094 6.5,-1.059 6.5,-1.027 6.49,-0.996 6.5,-0.965 v -26.347 0 h -6.5 -6.49 -6.5 -6.5 -6.49 -6.49 -6.49 -6.49 -6.49 -6.49 -6.5 -6.49 -6.49 -6.51 -6.49 -6.49 -6.49 -6.49 -6.5 -6.49 -6.49 -6.49 -6.49 -6.5 -6.5 -6.49 -6.5 -6.49 -6.49 -6.49 -6.49 -6.49 -6.49 -6.5 -6.49 -6.5 -6.49 -6.5 -6.49 -6.49 -6.49 -6.5 -6.49 -6.49 -6.49 -6.49 -6.51 -6.49 -6.49 -6.5 -6.49 -6.49 -6.49 -6.49 -6.49 -6.49 -6.5 -6.5 -6.49 -6.49 -6.5 -6.49 -6.49 -6.49 -6.5 -6.49 -6.49 -6.49 -6.51 -6.49 -6.49 -6.49 -6.49 -6.5 -6.49 -6.49 -6.49 -6.49 -6.49 -6.51 -6.49 -6.49 -6.49 -6.5 -6.49 -6.49 -6.49 -6.5 -6.49 -6.49 -6.5 -6.5 -6.49 -6.49 -6.49 -6.49 -6.5 -6.49 -6.49 -6.49 -6.49 -6.51 -6.49 -6.49 -6.49 -6.49 -6.5 -6.49 -6.49 -6.49 -6.5 -6.49 -6.5 -6.49 -6.5 -6.49 -6.49 -6.49 -6.49 -6.5 -6.49 -6.49 -6.49 -6.51 -6.49 -6.49 -6.49 -6.49 -6.49 -6.5 -6.49 -6.49 -6.49 -6.5 -6.5 -6.49 -6.49 -6.5 -6.49 -6.49 -6.49 -6.49 -6.5 -6.49 -6.49 -6.5 -6.5 -6.49 -6.49 -6.49"
           style="fill:#00bfbf;fill-opacity:1;fill-rule:nonzero;stroke:none"
           id="path190" /><path
           d="m 3010.91,497.52 v 1154.46 l 6.49,-16.59 6.49,-16.51 6.49,-16.42 6.5,-16.35 6.5,-16.26 6.49,-16.16 6.49,-16.08 6.5,-15.97 6.49,-15.88 6.49,-15.78 6.49,-15.66 6.49,-15.56 6.5,-15.45 6.49,-15.33 6.49,-15.22 6.5,-15.1 6.5,-14.97 6.49,-14.85 6.49,-14.72 6.49,-14.6 6.5,-14.47 6.49,-14.34 6.49,-14.19 6.49,-14.07 6.49,-13.93 6.49,-13.8 6.51,-13.64 6.49,-13.51 6.49,-13.37 6.49,-13.22 6.5,-13.08 6.49,-12.93 6.49,-12.78 6.49,-12.64 6.49,-12.49 6.5,-12.33 6.49,-12.19 6.5,-12.04 6.49,-11.89 6.5,-11.73 6.49,-11.59 6.49,-11.43 6.49,-11.28 6.5,-11.13 6.49,-10.97 6.49,-10.82 6.49,-10.672 6.49,-10.519 6.51,-10.364 6.49,-10.214 6.49,-10.067 6.49,-9.91 6.49,-9.762 6.5,-9.609 6.49,-9.461 6.49,-9.312 6.49,-9.165 6.49,-9.019 6.5,-8.867 6.5,-8.727 6.49,-8.578 6.49,-8.434 6.5,-8.289 6.49,-8.148 6.49,-8.008 6.49,-7.863 6.5,-7.727 6.49,-7.59 6.49,-7.453 6.49,-7.316 6.51,-7.18 6.49,-7.047 6.49,-6.914 6.49,-6.781 6.49,-6.656 6.49,-6.524 6.5,-6.398 6.49,-6.273 6.49,-6.149 6.49,-6.027 6.49,-5.903 6.51,-5.785 6.49,-5.664 6.49,-5.551 6.49,-5.433 6.5,-5.317 6.49,-5.207 6.49,-5.093 6.49,-4.989 6.5,-4.875 6.49,-4.769 6.49,-4.664 6.5,-4.563 6.5,-4.461 6.49,-4.359 6.49,-4.262 6.49,-4.164 6.49,-4.066 6.49,-3.973 6.49,-3.879 6.5,-3.789 6.49,-3.699 6.49,-3.613 6.51,-3.524 6.49,-3.441 6.49,-3.356 6.49,-3.269 6.49,-3.196 6.5,-3.113 6.49,-3.035 6.49,-2.957 6.49,-2.887 6.5,-2.808 6.49,-2.739 6.5,-2.668 6.49,-2.597 6.5,-2.531 6.49,-2.465 6.49,-2.399 6.49,-2.336 6.49,-2.273 6.49,-2.211 6.49,-2.152 6.5,-2.09 6.49,-2.039 6.5,-1.977 6.5,-1.926 6.49,-1.871 6.49,-1.82 6.49,-1.766 6.49,-1.718 6.5,-1.668 6.49,-1.618 6.49,-1.574 6.49,-1.527 6.49,-1.485 6.51,-1.441 6.49,-1.394 6.49,-1.356 6.5,-1.316 6.49,-1.278 6.49,-1.238 6.49,-1.199 6.49,-1.164 6.49,-1.129 6.49,-1.094 6.5,-1.059 6.5,-1.027 6.49,-0.996 6.5,-0.965 v -26.347 0 h -6.5 -6.49 -6.5 -6.5 -6.49 -6.49 -6.49 -6.49 -6.49 -6.49 -6.5 -6.49 -6.49 -6.51 -6.49 -6.49 -6.49 -6.49 -6.5 -6.49 -6.49 -6.49 -6.49 -6.5 -6.5 -6.49 -6.5 -6.49 -6.49 -6.49 -6.49 -6.49 -6.49 -6.5 -6.49 -6.5 -6.49 -6.5 -6.49 -6.49 -6.49 -6.5 -6.49 -6.49 -6.49 -6.49 -6.51 -6.49 -6.49 -6.5 -6.49 -6.49 -6.49 -6.49 -6.49 -6.49 -6.5 -6.5 -6.49 -6.49 -6.5 -6.49 -6.49 -6.49 -6.5 -6.49 -6.49 -6.49 -6.51 -6.49 -6.49 -6.49 -6.49 -6.5 -6.49 -6.49 -6.49 -6.49 -6.49 -6.51 -6.49 -6.49 -6.49 -6.5 -6.49 -6.49 -6.49 -6.5 -6.49 -6.49 -6.5 -6.5 -6.49 -6.49 -6.49 -6.49 -6.5 -6.49 -6.49 -6.49 -6.49 -6.51 -6.49 -6.49 -6.49 -6.49 -6.5 -6.49 -6.49 -6.49 -6.5 -6.49 -6.5 -6.49 -6.5 -6.49 -6.49 -6.49 -6.49 -6.5 -6.49 -6.49 -6.49 -6.51 -6.49 -6.49 -6.49 -6.49 -6.49 -6.5 -6.49 -6.49 -6.49 -6.5 -6.5 -6.49 -6.49 -6.5 -6.49 -6.49 -6.49 -6.49 -6.5 -6.49 -6.49 -6.5 -6.5 -6.49 -6.49 z"
           style="fill:none;stroke:#00bfbf;stroke-width:10;stroke-linecap:butt;stroke-linejoin:round;stroke-miterlimit:10;stroke-dasharray:none;stroke-opacity:1"
           id="path192" /></g></g><g
       id="g214"
       transform="matrix(0.03527778,0,0,-0.03527778,16.730064,140.03591)"><g
         id="g216"
         clip-path="url(#clipPath220)"><path
           d="m 738.328,523.867 51.945,8.633 45.45,9.508 45.453,11.691 38.957,12.055 38.957,14.215 38.961,16.656 38.959,19.41 32.47,18.504 32.46,20.824 32.47,23.332 32.46,26.039 32.47,28.93 32.46,32 32.47,35.238 32.46,38.641 32.47,42.176 32.46,45.824 32.47,49.562 32.47,53.345 32.45,57.16 38.97,73.58 38.95,78.89 38.97,83.97 45.45,103.93 45.45,109.63 51.95,131.03 71.42,186.96 136.35,358.67 51.95,129.21 38.95,91.51 38.97,85.54 32.46,65.86 32.47,60.27 25.97,43.77 25.97,39.5 25.98,34.99 19.47,23.13 19.48,20.38 19.48,17.53 19.48,14.65 19.48,11.66 19.47,8.66 19.49,5.62 19.48,2.57 19.48,-0.52 19.47,-3.58 19.49,-6.64 19.47,-9.67 19.48,-12.67 19.49,-15.59 19.47,-18.5 19.48,-21.3 19.48,-24.03 25.97,-36.15 25.97,-40.59 25.97,-44.8 25.98,-48.69 32.46,-65.86 32.47,-70.83 38.96,-90.59 45.45,-111.91 58.44,-150.7 201.29,-526.65 51.94,-126.54 45.45,-104.79 38.95,-84.8 38.97,-79.75 38.96,-74.47 38.96,-69.05 32.47,-53.345 32.46,-49.562 32.46,-45.824 32.47,-42.176 32.46,-38.641 32.47,-35.238 32.46,-32 32.47,-28.93 32.46,-26.039 32.48,-23.332 32.45,-20.824 32.48,-18.504 38.95,-19.41 38.96,-16.656 38.95,-14.215 38.97,-12.055 45.44,-11.691 45.46,-9.508 51.95,-8.633 v 0"
           style="fill:none;stroke:#008000;stroke-width:15;stroke-linecap:square;stroke-linejoin:round;stroke-miterlimit:10;stroke-dasharray:none;stroke-opacity:1"
           id="path222" /><path
           d="M 738.328,497.52 H 3984.88"
           style="fill:none;stroke:#000000;stroke-width:15;stroke-linecap:square;stroke-linejoin:round;stroke-miterlimit:10;stroke-dasharray:none;stroke-opacity:1"
           id="path224" /><path
           d="M 1712.29,497.52 V 1709.7"
           style="fill:none;stroke:#000000;stroke-width:15;stroke-linecap:butt;stroke-linejoin:round;stroke-miterlimit:10;stroke-dasharray:96, 24, 15, 24;stroke-dashoffset:0;stroke-opacity:1"
           id="path226" /><path
           d="m 2361.6,497.52 v 2419.2"
           style="fill:none;stroke:#000000;stroke-width:15;stroke-linecap:butt;stroke-linejoin:round;stroke-miterlimit:10;stroke-dasharray:96, 24, 15, 24;stroke-dashoffset:0;stroke-opacity:1"
           id="path228" /><path
           d="M 3010.91,497.52 V 1709.7"
           style="fill:none;stroke:#000000;stroke-width:15;stroke-linecap:butt;stroke-linejoin:round;stroke-miterlimit:10;stroke-dasharray:96, 24, 15, 24;stroke-dashoffset:0;stroke-opacity:1"
           id="path230" /></g></g><g
       id="g248"
       transform="matrix(0.03527778,0,0,-0.03527778,16.730064,140.03591)"><g
         id="g250"
         clip-path="url(#clipPath254)"><g
           id="g256"
           transform="matrix(889.2,0,0,-4.8,-888.12,1028.28)"><rect
             x="0"
             y="0"
             width="1"
             height="1"
             transform="matrix(1,0,0,-1,0,1)"
             style="fill:#231f20;fill-opacity:1;fill-rule:nonzero"
             id="rect258" /></g></g></g><text
       xml:space="preserve"
       style="font-variant:normal;font-weight:normal;font-size:5.62335px;font-family:CMSY10;-inkscape-font-specification:CMSY10;writing-mode:lr-tb;fill:#000000;fill-opacity:1;fill-rule:nonzero;stroke:none;stroke-width:0.352778"
       id="text264"
       x="71.020096"
       y="132.66077"><tspan
         x="71.020096"
         y="132.66077"
         id="tspan262"
         style="stroke-width:0.352778">−</tspan></text><text
       xml:space="preserve"
       style="font-variant:normal;font-weight:normal;font-size:5.62335px;font-family:CMMI12;-inkscape-font-specification:CMMI12;writing-mode:lr-tb;fill:#000000;fill-opacity:1;fill-rule:nonzero;stroke:none;stroke-width:0.352778"
       id="text268"
       x="93.758598"
       y="132.66077"
       transform="skewX(-8)"><tspan
         x="93.758598"
         y="132.66077"
         id="tspan266"
         style="stroke-width:0.352778">θ</tspan></text><text
       xml:space="preserve"
       style="font-variant:normal;font-weight:normal;font-size:5.62335px;font-family:CMR12;-inkscape-font-specification:CMR12;writing-mode:lr-tb;fill:#000000;fill-opacity:1;fill-rule:nonzero;stroke:none;stroke-width:0.352778"
       id="text272"
       x="98.665497"
       y="133.1264"><tspan
         x="98.665497"
         y="133.1264"
         id="tspan270"
         style="stroke-width:0.352778">0</tspan></text><text
       xml:space="preserve"
       style="font-variant:normal;font-weight:normal;font-size:5.62335px;font-family:CMMI12;-inkscape-font-specification:CMMI12;writing-mode:lr-tb;fill:#000000;fill-opacity:1;fill-rule:nonzero;stroke:none;stroke-width:0.352778"
       id="text276"
       x="140.04333"
       y="133.1264"
       transform="skewX(-8)"><tspan
         x="140.04333"
         y="133.1264"
         id="tspan274"
         style="stroke-width:0.352778">θ</tspan></text><text
       xml:space="preserve"
       style="font-variant:normal;font-weight:normal;font-size:4.92044px;font-family:CMR12;-inkscape-font-specification:CMR12;writing-mode:lr-tb;fill:#000000;fill-opacity:1;fill-rule:nonzero;stroke:none;stroke-width:0.352778"
       id="text280"
       x="61.865162"
       y="153.23683"><tspan
         x="61.865162 65.336441"
         y="153.23683"
         sodipodi:role="line"
         id="tspan278"
         style="stroke-width:0.352778">Φ(</tspan></text><text
       xml:space="preserve"
       style="font-variant:normal;font-weight:normal;font-size:4.92044px;font-family:CMSY10;-inkscape-font-specification:CMSY10;writing-mode:lr-tb;fill:#000000;fill-opacity:1;fill-rule:nonzero;stroke:none;stroke-width:0.352778"
       id="text284"
       x="67.199265"
       y="153.23683"><tspan
         x="67.199265"
         y="153.23683"
         id="tspan282"
         style="stroke-width:0.352778">−</tspan></text><text
       xml:space="preserve"
       style="font-variant:normal;font-weight:normal;font-size:4.92044px;font-family:CMMI12;-inkscape-font-specification:CMMI12;writing-mode:lr-tb;fill:#000000;fill-opacity:1;fill-rule:nonzero;stroke:none;stroke-width:0.352778"
       id="text288"
       x="92.283852"
       y="153.23683"
       transform="skewX(-8)"><tspan
         x="92.283852"
         y="153.23683"
         id="tspan286"
         style="stroke-width:0.352778">θ</tspan></text><text
       xml:space="preserve"
       style="font-variant:normal;font-weight:normal;font-size:4.92044px;font-family:CMR12;-inkscape-font-specification:CMR12;writing-mode:lr-tb;fill:#000000;fill-opacity:1;fill-rule:nonzero;stroke:none;stroke-width:0.352778"
       id="text292"
       x="73.379906"
       y="153.23683"><tspan
         x="73.379906"
         y="153.23683"
         id="tspan290"
         style="stroke-width:0.352778">)</tspan></text><text
       xml:space="preserve"
       style="font-variant:normal;font-weight:normal;font-size:3.44429px;font-family:CMR9;-inkscape-font-specification:CMR9;writing-mode:lr-tb;fill:#000000;fill-opacity:1;fill-rule:nonzero;stroke:none;stroke-width:0.352778"
       id="text296"
       x="78.704666"
       y="151.29022"><tspan
         x="78.704666"
         y="151.29022"
         id="tspan294"
         style="stroke-width:0.352778">1</tspan></text><g
       id="g298"
       transform="matrix(1.7780001,0,0,0.21166668,78.700423,151.88715)"><rect
         x="0"
         y="0"
         width="1"
         height="1"
         transform="matrix(1,0,0,-1,0,1)"
         style="fill:#000000;fill-opacity:1;fill-rule:nonzero"
         id="rect300" /></g><text
       xml:space="preserve"
       style="font-variant:normal;font-weight:normal;font-size:3.44429px;font-family:CMR9;-inkscape-font-specification:CMR9;writing-mode:lr-tb;fill:#000000;fill-opacity:1;fill-rule:nonzero;stroke:none;stroke-width:0.352778"
       id="text306"
       x="78.704659"
       y="154.93088"><tspan
         x="78.704659"
         y="154.93088"
         id="tspan304"
         style="stroke-width:0.352778">2</tspan></text><text
       xml:space="preserve"
       style="font-variant:normal;font-weight:normal;font-size:4.92044px;font-family:CMSY10;-inkscape-font-specification:CMSY10;writing-mode:lr-tb;fill:#000000;fill-opacity:1;fill-rule:nonzero;stroke:none;stroke-width:0.352778"
       id="text310"
       x="80.906067"
       y="153.23755"><tspan
         x="80.906067"
         y="153.23755"
         id="tspan308"
         style="stroke-width:0.352778">−</tspan></text><text
       xml:space="preserve"
       style="font-variant:normal;font-weight:normal;font-size:4.92044px;font-family:CMR12;-inkscape-font-specification:CMR12;writing-mode:lr-tb;fill:#000000;fill-opacity:1;fill-rule:nonzero;stroke:none;stroke-width:0.352778"
       id="text314"
       x="85.329834"
       y="153.23755"><tspan
         x="85.329834 88.801117"
         y="153.23755"
         sodipodi:role="line"
         id="tspan312"
         style="stroke-width:0.352778">Φ(</tspan></text><text
       xml:space="preserve"
       style="font-variant:normal;font-weight:normal;font-size:4.92044px;font-family:CMSY10;-inkscape-font-specification:CMSY10;writing-mode:lr-tb;fill:#000000;fill-opacity:1;fill-rule:nonzero;stroke:none;stroke-width:0.352778"
       id="text318"
       x="89.605461"
       y="153.23755"><tspan
         x="89.605461"
         y="153.23755"
         id="tspan316"
         style="stroke-width:0.352778">−</tspan></text><text
       xml:space="preserve"
       style="font-variant:normal;font-weight:normal;font-size:4.92044px;font-family:CMMI12;-inkscape-font-specification:CMMI12;writing-mode:lr-tb;fill:#000000;fill-opacity:1;fill-rule:nonzero;stroke:none;stroke-width:0.352778"
       id="text322"
       x="114.69006"
       y="153.23755"
       transform="skewX(-8)"><tspan
         x="114.69006"
         y="153.23755"
         id="tspan320"
         style="stroke-width:0.352778">θ</tspan></text><text
       xml:space="preserve"
       style="font-variant:normal;font-weight:normal;font-size:4.92044px;font-family:CMR12;-inkscape-font-specification:CMR12;writing-mode:lr-tb;fill:#000000;fill-opacity:1;fill-rule:nonzero;stroke:none;stroke-width:0.352778"
       id="text326"
       x="95.78624"
       y="153.23755"><tspan
         x="95.78624"
         y="153.23755"
         id="tspan324"
         style="stroke-width:0.352778">)</tspan></text><text
       xml:space="preserve"
       style="font-variant:normal;font-weight:normal;font-size:3.44429px;font-family:CMR9;-inkscape-font-specification:CMR9;writing-mode:lr-tb;fill:#000000;fill-opacity:1;fill-rule:nonzero;stroke:none;stroke-width:0.352778"
       id="text330"
       x="101.61094"
       y="151.29022"><tspan
         x="101.61094"
         y="151.29022"
         id="tspan328"
         style="stroke-width:0.352778">1</tspan></text><g
       id="g332"
       transform="matrix(1.7780001,0,0,0.21166668,101.60664,151.88715)"><rect
         x="0"
         y="0"
         width="1"
         height="1"
         transform="matrix(1,0,0,-1,0,1)"
         style="fill:#000000;fill-opacity:1;fill-rule:nonzero"
         id="rect334" /></g><text
       xml:space="preserve"
       style="font-variant:normal;font-weight:normal;font-size:3.44429px;font-family:CMR9;-inkscape-font-specification:CMR9;writing-mode:lr-tb;fill:#000000;fill-opacity:1;fill-rule:nonzero;stroke:none;stroke-width:0.352778"
       id="text340"
       x="101.61087"
       y="154.93088"><tspan
         x="101.61087"
         y="154.93088"
         id="tspan338"
         style="stroke-width:0.352778">2</tspan></text><text
       xml:space="preserve"
       style="font-variant:normal;font-weight:normal;font-size:4.92044px;font-family:CMSY10;-inkscape-font-specification:CMSY10;writing-mode:lr-tb;fill:#000000;fill-opacity:1;fill-rule:nonzero;stroke:none;stroke-width:0.352778"
       id="text344"
       x="103.28298"
       y="153.23755"><tspan
         x="103.28298"
         y="153.23755"
         id="tspan342"
         style="stroke-width:0.352778">−</tspan></text><text
       xml:space="preserve"
       style="font-variant:normal;font-weight:normal;font-size:4.92044px;font-family:CMR12;-inkscape-font-specification:CMR12;writing-mode:lr-tb;fill:#000000;fill-opacity:1;fill-rule:nonzero;stroke:none;stroke-width:0.352778"
       id="text348"
       x="107.17759"
       y="153.23755"><tspan
         x="107.17759 110.64886"
         y="153.23755"
         sodipodi:role="line"
         id="tspan346"
         style="stroke-width:0.352778">Φ(</tspan></text><text
       xml:space="preserve"
       style="font-variant:normal;font-weight:normal;font-size:4.92044px;font-family:CMSY10;-inkscape-font-specification:CMSY10;writing-mode:lr-tb;fill:#000000;fill-opacity:1;fill-rule:nonzero;stroke:none;stroke-width:0.352778"
       id="text352"
       x="111.45335"
       y="153.23755"><tspan
         x="111.45335"
         y="153.23755"
         id="tspan350"
         style="stroke-width:0.352778">−</tspan></text><text
       xml:space="preserve"
       style="font-variant:normal;font-weight:normal;font-size:4.92044px;font-family:CMMI12;-inkscape-font-specification:CMMI12;writing-mode:lr-tb;fill:#000000;fill-opacity:1;fill-rule:nonzero;stroke:none;stroke-width:0.352778"
       id="text356"
       x="136.53799"
       y="153.23755"
       transform="skewX(-8)"><tspan
         x="136.53799"
         y="153.23755"
         id="tspan354"
         style="stroke-width:0.352778">θ</tspan></text><text
       xml:space="preserve"
       style="font-variant:normal;font-weight:normal;font-size:4.92044px;font-family:CMR12;-inkscape-font-specification:CMR12;writing-mode:lr-tb;fill:#000000;fill-opacity:1;fill-rule:nonzero;stroke:none;stroke-width:0.352778"
       id="text362"
       x="121.33816"
       y="153.23755"><tspan
         x="121.33816"
         y="153.23755"
         id="tspan358"
         style="stroke-width:0.352778">)</tspan><tspan
         x="125.81142 129.2827"
         y="153.23686"
         sodipodi:role="line"
         id="tspan360"
         style="stroke-width:0.352778">Φ(</tspan></text><text
       xml:space="preserve"
       style="font-variant:normal;font-weight:normal;font-size:4.92044px;font-family:CMSY10;-inkscape-font-specification:CMSY10;writing-mode:lr-tb;fill:#000000;fill-opacity:1;fill-rule:nonzero;stroke:none;stroke-width:0.352778"
       id="text366"
       x="131.14539"
       y="153.23686"><tspan
         x="131.14539"
         y="153.23686"
         id="tspan364"
         style="stroke-width:0.352778">−</tspan></text><text
       xml:space="preserve"
       style="font-variant:normal;font-weight:normal;font-size:4.92044px;font-family:CMMI12;-inkscape-font-specification:CMMI12;writing-mode:lr-tb;fill:#000000;fill-opacity:1;fill-rule:nonzero;stroke:none;stroke-width:0.352778"
       id="text370"
       x="156.22997"
       y="153.23686"
       transform="skewX(-8)"><tspan
         x="156.22997"
         y="153.23686"
         id="tspan368"
         style="stroke-width:0.352778">θ</tspan></text><text
       xml:space="preserve"
       style="font-variant:normal;font-weight:normal;font-size:4.92044px;font-family:CMR12;-inkscape-font-specification:CMR12;writing-mode:lr-tb;fill:#000000;fill-opacity:1;fill-rule:nonzero;stroke:none;stroke-width:0.352778"
       id="text374"
       x="137.32602"
       y="153.23686"><tspan
         x="137.32602"
         y="153.23686"
         id="tspan372"
         style="stroke-width:0.352778">)</tspan></text></g></svg>
